<?xml version="1.0" encoding="utf-8"?>
<!-- Generator: Adobe Illustrator 24.3.0, SVG Export Plug-In . SVG Version: 6.00 Build 0)  -->
<svg version="1.1" id="Capa_1" xmlns="http://www.w3.org/2000/svg" xmlns:xlink="http://www.w3.org/1999/xlink" x="0px" y="0px"
	 viewBox="0 0 1146 768" style="enable-background:new 0 0 1146 768;" xml:space="preserve">
<style type="text/css">
	.st0{fill:#E81E63;}
	.st1{fill:#9D9D9D;}
	.st2{fill:#AC1457;}
	.st3{fill:#7E8D93;}
	.st4{fill:#5F7C8A;}
	.st5{fill:#535B5F;}
	.st6{fill:#929292;}
	.st7{fill:#8F8F8F;}
	.st8{fill:#959595;}
	.st9{fill:#9C9C9C;}
	.st10{fill:#8B8B8B;}
	.st11{fill:#FEDB00;}
	.st12{fill:#816F00;}
	.st13{fill:#02A8F3;}
	.st14{fill:#051720;}
	.st15{fill:#D4145A;}
	.st16{fill:#FEFEFE;}
	.st17{fill:#D9DDE3;}
	.st18{fill:#B3BBC8;}
	.st19{fill:#5F6C75;}
	.st20{fill:#4E5A61;}
	.st21{fill:#5E6A73;}
	.st22{fill:#80B6FB;}
	.st23{fill:#F03759;}
	.st24{fill:#D7DBE1;}
	.st25{fill:#D7DBE0;}
	.st26{fill:#D8DCE2;}
	.st27{fill:#717C81;}
	.st28{fill:#F6B635;}
	.st29{fill:#010101;}
	.st30{fill:#F4A403;}
	.st31{fill:#29ABE2;}
	.st32{fill:#60A817;}
	.st33{fill:#9F522D;}
	.st34{fill:#549314;}
	.st35{fill:#539314;}
	.st36{fill:#707070;}
	.st37{fill:#773E22;}
	.st38{fill:#9F512D;}
	.st39{fill:#753C21;}
	.st40{fill:#010100;}
	.st41{fill:#000100;}
	.st42{fill:#6F6F6F;}
	.st43{fill:#3BA8FC;}
	.st44{fill:#E9E9EF;}
	.st45{fill:#061821;}
	.st46{fill:#0E8ACD;}
	.st47{fill:#051721;}
	.st48{fill:none;stroke:#ED1C24;stroke-width:10;stroke-miterlimit:10;}
	.st49{fill:none;stroke:#000000;stroke-width:35;stroke-miterlimit:10;}
	.st50{fill:none;stroke:#B3B3B3;stroke-width:26;stroke-miterlimit:10;}
	.st51{fill:none;stroke:#808080;stroke-width:15;stroke-miterlimit:10;}
	.st52{fill:#EAEAEA;}
	.st53{fill:none;stroke:#0000FF;stroke-width:10;stroke-miterlimit:10;}
	.st54{fill:#0000FF;stroke:#1B1464;stroke-width:2;stroke-miterlimit:10;}
	.st55{fill:#0000FF;}
	.st56{fill:#D8D8D8;}
	.st57{fill:none;stroke:#0000FF;stroke-width:12;stroke-miterlimit:10;}
	.st58{fill:none;stroke:#0000FF;stroke-width:40;stroke-miterlimit:10;}
	.st59{fill:none;stroke:#0000FF;stroke-width:5;stroke-miterlimit:10;}
	.st60{fill:none;stroke:#000000;stroke-width:5;stroke-miterlimit:10;}
	.st61{fill:#525252;}
	.st62{fill:#C1272D;}
	.st63{fill:#0071BC;}
	.st64{fill:none;stroke:#FFFFFF;stroke-width:3;stroke-miterlimit:10;}
	.st65{clip-path:url(#SVGID_2_);}
	.st66{clip-path:url(#SVGID_4_);fill:#051720;}
	.st67{clip-path:url(#SVGID_4_);fill:#999999;}
	.st68{clip-path:url(#SVGID_4_);fill:#1A1A1A;}
	.st69{clip-path:url(#SVGID_4_);fill:#FFFFFF;}
	.st70{clip-path:url(#SVGID_4_);fill:#0071BC;}
	.st71{clip-path:url(#SVGID_4_);fill:#00A99D;}
	.st72{clip-path:url(#SVGID_4_);fill:#009245;}
	.st73{clip-path:url(#SVGID_4_);fill:#006837;}
	.st74{clip-path:url(#SVGID_4_);}
	.st75{clip-path:url(#SVGID_4_);fill:#4D4D4D;}
	.st76{clip-path:url(#SVGID_4_);fill:#2C3428;}
	.st77{clip-path:url(#SVGID_4_);fill:#373D35;}
	.st78{clip-path:url(#SVGID_4_);fill:#3A3F30;}
	.st79{clip-path:url(#SVGID_4_);fill:#2F3B2C;}
	.st80{clip-path:url(#SVGID_4_);fill:#889185;}
	.st81{clip-path:url(#SVGID_4_);fill:#A1B48E;}
	.st82{clip-path:url(#SVGID_4_);fill:#1A2116;}
	.st83{clip-path:url(#SVGID_4_);fill:#0D1708;}
	.st84{clip-path:url(#SVGID_4_);fill:#B0B9AD;}
	.st85{clip-path:url(#SVGID_4_);fill:#E4F6DA;}
	.st86{clip-path:url(#SVGID_4_);fill:#636B60;}
	.st87{clip-path:url(#SVGID_4_);fill:#F0F7E7;}
	.st88{clip-path:url(#SVGID_4_);fill:#ECF4E3;}
	.st89{clip-path:url(#SVGID_4_);fill:#525A4A;}
	.st90{clip-path:url(#SVGID_4_);fill:#A9C897;}
	.st91{clip-path:url(#SVGID_4_);fill:#A5BC93;}
	.st92{clip-path:url(#SVGID_4_);fill:#C2D3B0;}
	.st93{clip-path:url(#SVGID_4_);fill:#B7D0A2;}
	.st94{clip-path:url(#SVGID_4_);fill:#AAC09C;}
	.st95{clip-path:url(#SVGID_4_);fill:#A6C598;}
	.st96{clip-path:url(#SVGID_4_);fill:#C7E1B0;}
	.st97{clip-path:url(#SVGID_4_);fill:#98B395;}
	.st98{clip-path:url(#SVGID_4_);fill:#BDD0AE;}
	.st99{clip-path:url(#SVGID_4_);fill:#D1E3C2;}
	.st100{clip-path:url(#SVGID_4_);fill:#C7D6B8;}
	.st101{clip-path:url(#SVGID_4_);fill:#E1E8D8;}
	.st102{clip-path:url(#SVGID_4_);fill:#CEECBE;}
	.st103{clip-path:url(#SVGID_4_);fill:#869E79;}
	.st104{clip-path:url(#SVGID_4_);fill:#222A15;}
	.st105{clip-path:url(#SVGID_4_);fill:#CCD1C1;}
	.st106{clip-path:url(#SVGID_4_);fill:#4B5245;}
	.st107{clip-path:url(#SVGID_4_);fill:#D2E5C5;}
	.st108{clip-path:url(#SVGID_4_);fill:#CCDBC1;}
	.st109{clip-path:url(#SVGID_4_);fill:#C7D7BC;}
	.st110{clip-path:url(#SVGID_4_);fill:#CEDDC0;}
	.st111{clip-path:url(#SVGID_4_);fill:#E7F8D7;}
	.st112{clip-path:url(#SVGID_4_);fill:#DBEFCC;}
	.st113{clip-path:url(#SVGID_4_);fill:#90A489;}
	.st114{clip-path:url(#SVGID_4_);fill:#48513F;}
	.st115{clip-path:url(#SVGID_4_);fill:#151F0D;}
	.st116{clip-path:url(#SVGID_4_);fill:#404938;}
	.st117{clip-path:url(#SVGID_4_);fill:#353D30;}
	.st118{clip-path:url(#SVGID_4_);fill:#A7C098;}
	.st119{clip-path:url(#SVGID_4_);fill:#A9BF9A;}
	.st120{clip-path:url(#SVGID_4_);fill:#9FBD8E;}
	.st121{clip-path:url(#SVGID_4_);fill:#BAD0AE;}
	.st122{clip-path:url(#SVGID_4_);fill:#C3D8AE;}
	.st123{clip-path:url(#SVGID_4_);fill:#000E00;}
	.st124{clip-path:url(#SVGID_4_);fill:#D1E0C9;}
	.st125{clip-path:url(#SVGID_4_);fill:#C0D1B3;}
	.st126{clip-path:url(#SVGID_4_);fill:#C8D9B7;}
	.st127{clip-path:url(#SVGID_4_);fill:#9EAE92;}
	.st128{clip-path:url(#SVGID_4_);fill:#BFD4B3;}
	.st129{clip-path:url(#SVGID_4_);fill:#CFF1BD;}
	.st130{clip-path:url(#SVGID_4_);fill:#D8F2CA;}
	.st131{clip-path:url(#SVGID_4_);fill:#D7F0C7;}
	.st132{clip-path:url(#SVGID_4_);fill:#BAD5AB;}
	.st133{clip-path:url(#SVGID_4_);fill:#B4CCA1;}
	.st134{clip-path:url(#SVGID_4_);fill:#081109;}
	.st135{clip-path:url(#SVGID_4_);fill:#262E20;}
	.st136{clip-path:url(#SVGID_4_);fill:#BCDAB7;}
	.st137{clip-path:url(#SVGID_4_);fill:#B0CFA0;}
	.st138{clip-path:url(#SVGID_4_);fill:#AFC99E;}
	.st139{clip-path:url(#SVGID_4_);fill:#071502;}
	.st140{clip-path:url(#SVGID_4_);fill:#7A9573;}
	.st141{clip-path:url(#SVGID_4_);fill:#0F1E0E;}
	.st142{clip-path:url(#SVGID_4_);fill:#26371E;}
	.st143{clip-path:url(#SVGID_4_);fill:#9DB391;}
	.st144{clip-path:url(#SVGID_4_);fill:#001800;}
	.st145{clip-path:url(#SVGID_4_);fill:#001100;}
	.st146{clip-path:url(#SVGID_4_);fill:#A6C397;}
	.st147{clip-path:url(#SVGID_4_);fill:#CFE2C7;}
	.st148{clip-path:url(#SVGID_4_);fill:#D5E3C9;}
	.st149{clip-path:url(#SVGID_4_);fill:#D9E9CE;}
	.st150{clip-path:url(#SVGID_4_);fill:#D2E5C8;}
	.st151{clip-path:url(#SVGID_4_);fill:#DBEED2;}
	.st152{clip-path:url(#SVGID_4_);fill:#CBE0C2;}
	.st153{clip-path:url(#SVGID_4_);fill:#7C8D77;}
	.st154{clip-path:url(#SVGID_4_);fill:#D7E6CD;}
	.st155{clip-path:url(#SVGID_4_);fill:#B9C8B0;}
	.st156{clip-path:url(#SVGID_4_);fill:#B6C3AC;}
	.st157{clip-path:url(#SVGID_4_);fill:#607259;}
	.st158{clip-path:url(#SVGID_4_);fill:#75866C;}
	.st159{clip-path:url(#SVGID_4_);fill:#D6E6C9;}
	.st160{clip-path:url(#SVGID_4_);fill:#D3E1CB;}
	.st161{clip-path:url(#SVGID_4_);fill:#C1D1BD;}
	.st162{clip-path:url(#SVGID_4_);fill:#53574D;}
	.st163{clip-path:url(#SVGID_4_);fill:#D6E6CB;}
	.st164{clip-path:url(#SVGID_4_);fill:#D5E2CA;}
	.st165{clip-path:url(#SVGID_4_);fill:#B5C6AB;}
	.st166{clip-path:url(#SVGID_4_);fill:#CCDAC5;}
	.st167{clip-path:url(#SVGID_4_);fill:#CCDBC3;}
	.st168{clip-path:url(#SVGID_4_);fill:#D7E5D3;}
	.st169{clip-path:url(#SVGID_4_);fill:#4A5244;}
	.st170{clip-path:url(#SVGID_4_);fill:#CADAC1;}
	.st171{clip-path:url(#SVGID_4_);fill:#BFD4B4;}
	.st172{clip-path:url(#SVGID_4_);fill:#BDD0AF;}
	.st173{clip-path:url(#SVGID_4_);fill:#BAD0AD;}
	.st174{clip-path:url(#SVGID_4_);fill:#C0D7B7;}
	.st175{clip-path:url(#SVGID_4_);fill:#A5C392;}
	.st176{clip-path:url(#SVGID_4_);fill:#BDD3B2;}
	.st177{clip-path:url(#SVGID_4_);fill:#C1DCB0;}
	.st178{clip-path:url(#SVGID_4_);fill:#BACDB0;}
	.st179{clip-path:url(#SVGID_4_);fill:#ABC19B;}
	.st180{clip-path:url(#SVGID_4_);fill:#43523C;}
	.st181{clip-path:url(#SVGID_4_);fill:#293C26;}
	.st182{clip-path:url(#SVGID_4_);fill:#C0D5B6;}
	.st183{clip-path:url(#SVGID_4_);fill:#273D1A;}
	.st184{clip-path:url(#SVGID_4_);fill:#9EB792;}
	.st185{clip-path:url(#SVGID_4_);fill:#19280F;}
	.st186{clip-path:url(#SVGID_4_);fill:#828F7A;}
	.st187{clip-path:url(#SVGID_4_);fill:#798272;}
	.st188{clip-path:url(#SVGID_4_);fill:#C6D9BF;}
	.st189{clip-path:url(#SVGID_4_);fill:#74846F;}
	.st190{clip-path:url(#SVGID_4_);fill:#D6E5D0;}
	.st191{clip-path:url(#SVGID_4_);fill:#0F2107;}
	.st192{clip-path:url(#SVGID_4_);fill:#2C3F1A;}
	.st193{clip-path:url(#SVGID_4_);fill:#1C2319;}
	.st194{clip-path:url(#SVGID_4_);fill:#6B7B66;}
	.st195{clip-path:url(#SVGID_4_);fill:#61685E;}
	.st196{clip-path:url(#SVGID_4_);fill:#AFBDA5;}
	.st197{clip-path:url(#SVGID_4_);fill:#676D62;}
	.st198{clip-path:url(#SVGID_4_);fill:#ABC798;}
	.st199{clip-path:url(#SVGID_4_);fill:#29401B;}
	.st200{clip-path:url(#SVGID_4_);fill:#2E4127;}
	.st201{clip-path:url(#SVGID_4_);fill:#C5D6B2;}
	.st202{clip-path:url(#SVGID_4_);fill:#A8C09B;}
	.st203{clip-path:url(#SVGID_4_);fill:#283C1E;}
	.st204{clip-path:url(#SVGID_4_);fill:#0D1608;}
	.st205{clip-path:url(#SVGID_4_);fill:#AFC39F;}
	.st206{clip-path:url(#SVGID_4_);fill:#A0BE92;}
	.st207{clip-path:url(#SVGID_4_);fill:#CDE0C5;}
	.st208{clip-path:url(#SVGID_4_);fill:#889983;}
	.st209{clip-path:url(#SVGID_4_);fill:#D9EBD0;}
	.st210{clip-path:url(#SVGID_4_);fill:#7B8D73;}
	.st211{clip-path:url(#SVGID_4_);fill:#8A9589;}
	.st212{clip-path:url(#SVGID_4_);fill:#5B6A58;}
	.st213{clip-path:url(#SVGID_4_);fill:#D8E7D0;}
	.st214{clip-path:url(#SVGID_4_);fill:#879981;}
	.st215{clip-path:url(#SVGID_4_);fill:#D8E8D0;}
	.st216{clip-path:url(#SVGID_4_);fill:#7A8977;}
	.st217{clip-path:url(#SVGID_4_);fill:#9DAE98;}
	.st218{clip-path:url(#SVGID_4_);fill:#858A80;}
	.st219{clip-path:url(#SVGID_4_);fill:#CADBC3;}
	.st220{clip-path:url(#SVGID_4_);fill:#BCCAB3;}
	.st221{clip-path:url(#SVGID_4_);fill:#96A691;}
	.st222{clip-path:url(#SVGID_4_);fill:#384031;}
	.st223{clip-path:url(#SVGID_4_);fill:#7C8772;}
	.st224{clip-path:url(#SVGID_4_);fill:#939C8C;}
	.st225{clip-path:url(#SVGID_4_);fill:#D8E7D1;}
	.st226{clip-path:url(#SVGID_4_);fill:#97A090;}
	.st227{clip-path:url(#SVGID_4_);fill:#7B8474;}
	.st228{clip-path:url(#SVGID_4_);fill:#AFBFA9;}
	.st229{clip-path:url(#SVGID_4_);fill:#CDDCC6;}
	.st230{clip-path:url(#SVGID_4_);fill:#C9D7BE;}
	.st231{clip-path:url(#SVGID_4_);fill:#808E7D;}
	.st232{clip-path:url(#SVGID_4_);fill:#6A7461;}
	.st233{clip-path:url(#SVGID_4_);fill:#808A79;}
	.st234{clip-path:url(#SVGID_4_);fill:#9EA799;}
	.st235{clip-path:url(#SVGID_4_);fill:#D1E0CB;}
	.st236{clip-path:url(#SVGID_4_);fill:#6F7D6A;}
	.st237{clip-path:url(#SVGID_4_);fill:#505F4C;}
	.st238{clip-path:url(#SVGID_4_);fill:#EDFCEA;}
	.st239{clip-path:url(#SVGID_4_);fill:#4F5E4C;}
	.st240{clip-path:url(#SVGID_4_);fill:#B2C1AF;}
	.st241{clip-path:url(#SVGID_4_);fill:#434D42;}
	.st242{clip-path:url(#SVGID_4_);fill:#7C8575;}
	.st243{clip-path:url(#SVGID_4_);fill:#99A094;}
	.st244{clip-path:url(#SVGID_4_);fill:#A9B1A1;}
	.st245{clip-path:url(#SVGID_4_);fill:#C4DAB9;}
	.st246{clip-path:url(#SVGID_4_);fill:#C2D6B5;}
	.st247{clip-path:url(#SVGID_4_);fill:#C7DCBD;}
	.st248{clip-path:url(#SVGID_4_);fill:#D9E3CF;}
	.st249{clip-path:url(#SVGID_4_);fill:#67785C;}
	.st250{clip-path:url(#SVGID_4_);fill:#C0D1B1;}
	.st251{clip-path:url(#SVGID_4_);fill:#C7DFB6;}
	.st252{clip-path:url(#SVGID_4_);fill:#A3BC98;}
	.st253{clip-path:url(#SVGID_4_);fill:#A9C39A;}
	.st254{clip-path:url(#SVGID_4_);fill:#B9D3AA;}
	.st255{clip-path:url(#SVGID_4_);fill:#AEC99C;}
	.st256{clip-path:url(#SVGID_4_);fill:#1C2F16;}
	.st257{clip-path:url(#SVGID_4_);fill:#253620;}
	.st258{clip-path:url(#SVGID_4_);fill:#B1C9A2;}
	.st259{clip-path:url(#SVGID_4_);fill:#BDD2B7;}
	.st260{clip-path:url(#SVGID_4_);fill:#BFD5AE;}
	.st261{clip-path:url(#SVGID_4_);fill:#142410;}
	.st262{clip-path:url(#SVGID_4_);fill:#D7EDC5;}
	.st263{clip-path:url(#SVGID_4_);fill:#A6BE97;}
	.st264{clip-path:url(#SVGID_4_);fill:#AABEA2;}
	.st265{clip-path:url(#SVGID_4_);fill:#DCF0D5;}
	.st266{clip-path:url(#SVGID_4_);fill:#091E00;}
	.st267{clip-path:url(#SVGID_4_);fill:#2F422A;}
	.st268{clip-path:url(#SVGID_4_);fill:#B4CDA4;}
	.st269{clip-path:url(#SVGID_4_);fill:#293E1C;}
	.st270{clip-path:url(#SVGID_4_);fill:#667460;}
	.st271{clip-path:url(#SVGID_4_);fill:#B0BEA8;}
	.st272{clip-path:url(#SVGID_4_);fill:#A0AD9A;}
	.st273{clip-path:url(#SVGID_4_);fill:#C8DAC0;}
	.st274{clip-path:url(#SVGID_4_);fill:#C3D6BC;}
	.st275{clip-path:url(#SVGID_4_);fill:#A8C395;}
	.st276{clip-path:url(#SVGID_4_);fill:#C4D6B8;}
	.st277{clip-path:url(#SVGID_4_);fill:#C9DBBB;}
	.st278{clip-path:url(#SVGID_4_);fill:#CADCC2;}
	.st279{clip-path:url(#SVGID_4_);fill:#C8DEBA;}
	.st280{clip-path:url(#SVGID_4_);fill:#C3D2B9;}
	.st281{clip-path:url(#SVGID_4_);fill:#C0D4BA;}
	.st282{clip-path:url(#SVGID_4_);fill:#64735E;}
	.st283{clip-path:url(#SVGID_4_);fill:#BED2B1;}
	.st284{clip-path:url(#SVGID_4_);fill:#101C0C;}
	.st285{clip-path:url(#SVGID_4_);fill:#ACC39A;}
	.st286{clip-path:url(#SVGID_4_);fill:#4C6241;}
	.st287{clip-path:url(#SVGID_4_);fill:#3B4F32;}
	.st288{clip-path:url(#SVGID_4_);fill:#ACBBA7;}
	.st289{clip-path:url(#SVGID_4_);fill:#2E4423;}
	.st290{clip-path:url(#SVGID_4_);fill:#10170F;}
	.st291{clip-path:url(#SVGID_4_);fill:#51594F;}
	.st292{clip-path:url(#SVGID_4_);fill:#454B43;}
	.st293{clip-path:url(#SVGID_4_);fill:#40473D;}
	.st294{clip-path:url(#SVGID_4_);fill:#010701;}
	.st295{clip-path:url(#SVGID_4_);fill:#252C21;}
	.st296{clip-path:url(#SVGID_4_);fill:#10180E;}
	.st297{clip-path:url(#SVGID_4_);fill:#020901;}
	.st298{clip-path:url(#SVGID_4_);fill:#566D48;}
	.st299{clip-path:url(#SVGID_4_);fill:#B8CCA6;}
	.st300{clip-path:url(#SVGID_4_);fill:#A8BE99;}
	.st301{clip-path:url(#SVGID_4_);fill:#B5C6A6;}
	.st302{clip-path:url(#SVGID_4_);fill:#A3B799;}
	.st303{clip-path:url(#SVGID_4_);fill:#000803;}
	.st304{clip-path:url(#SVGID_4_);fill:#A5C098;}
	.st305{clip-path:url(#SVGID_4_);fill:#A2C092;}
	.st306{clip-path:url(#SVGID_4_);fill:#BAD5B0;}
	.st307{clip-path:url(#SVGID_4_);fill:#0F1C0F;}
	.st308{clip-path:url(#SVGID_4_);fill:#8B9887;}
	.st309{clip-path:url(#SVGID_4_);fill:#9DA595;}
	.st310{clip-path:url(#SVGID_4_);fill:#809078;}
	.st311{clip-path:url(#SVGID_4_);fill:#4D574C;}
	.st312{clip-path:url(#SVGID_4_);fill:#596253;}
	.st313{clip-path:url(#SVGID_4_);fill:#AEBEA6;}
	.st314{clip-path:url(#SVGID_4_);fill:#BBC8B4;}
	.st315{clip-path:url(#SVGID_4_);fill:#85927F;}
	.st316{clip-path:url(#SVGID_4_);fill:#7A8372;}
	.st317{clip-path:url(#SVGID_4_);fill:#5C6758;}
	.st318{clip-path:url(#SVGID_4_);fill:#A7B0A0;}
	.st319{clip-path:url(#SVGID_4_);fill:#969F8F;}
	.st320{clip-path:url(#SVGID_4_);fill:#5E6D57;}
	.st321{clip-path:url(#SVGID_4_);fill:#3B4939;}
	.st322{clip-path:url(#SVGID_4_);fill:#2C3525;}
	.st323{clip-path:url(#SVGID_4_);fill:#5C6C54;}
	.st324{clip-path:url(#SVGID_4_);fill:#D5E5CD;}
	.st325{clip-path:url(#SVGID_4_);fill:#C5D5BC;}
	.st326{clip-path:url(#SVGID_4_);fill:#BCCFB2;}
	.st327{clip-path:url(#SVGID_4_);fill:#2E3B24;}
	.st328{clip-path:url(#SVGID_4_);fill:#0A1507;}
	.st329{clip-path:url(#SVGID_4_);fill:#B3C9A6;}
	.st330{clip-path:url(#SVGID_4_);fill:#AAC39D;}
	.st331{clip-path:url(#SVGID_4_);fill:#A5BD95;}
	.st332{clip-path:url(#SVGID_4_);fill:#33482D;}
	.st333{clip-path:url(#SVGID_4_);fill:#AFC79F;}
	.st334{clip-path:url(#SVGID_4_);fill:#1F3319;}
	.st335{clip-path:url(#SVGID_4_);fill:#BDD3AF;}
	.st336{clip-path:url(#SVGID_4_);fill:#B7D1AA;}
	.st337{clip-path:url(#SVGID_4_);fill:#3E5331;}
	.st338{clip-path:url(#SVGID_4_);fill:#263A1F;}
	.st339{clip-path:url(#SVGID_4_);fill:#9DB096;}
	.st340{clip-path:url(#SVGID_4_);fill:#DFF7C7;}
	.st341{clip-path:url(#SVGID_4_);fill:#9BB090;}
	.st342{clip-path:url(#SVGID_4_);fill:#001200;}
	.st343{clip-path:url(#SVGID_4_);fill:#B0BDAB;}
	.st344{clip-path:url(#SVGID_4_);fill:#C5D8BD;}
	.st345{clip-path:url(#SVGID_4_);fill:#AEC99A;}
	.st346{clip-path:url(#SVGID_4_);fill:#A7C292;}
	.st347{clip-path:url(#SVGID_4_);fill:#475542;}
	.st348{clip-path:url(#SVGID_4_);fill:#122310;}
	.st349{clip-path:url(#SVGID_4_);fill:#263124;}
	.st350{clip-path:url(#SVGID_4_);fill:#31372E;}
	.st351{clip-path:url(#SVGID_4_);fill:#172114;}
	.st352{clip-path:url(#SVGID_4_);fill:#ACC399;}
	.st353{clip-path:url(#SVGID_4_);fill:#B9CAB2;}
	.st354{clip-path:url(#SVGID_4_);fill:#B3CDA1;}
	.st355{clip-path:url(#SVGID_4_);fill:#B1C1A4;}
	.st356{clip-path:url(#SVGID_4_);fill:#AEC6A5;}
	.st357{clip-path:url(#SVGID_4_);fill:#2D3A28;}
	.st358{clip-path:url(#SVGID_4_);fill:#8E998C;}
	.st359{clip-path:url(#SVGID_4_);fill:#525C50;}
	.st360{clip-path:url(#SVGID_4_);fill:#B1C3A9;}
	.st361{clip-path:url(#SVGID_4_);fill:#A6B0A3;}
	.st362{clip-path:url(#SVGID_4_);fill:#94A091;}
	.st363{clip-path:url(#SVGID_4_);fill:#ABB6AA;}
	.st364{clip-path:url(#SVGID_4_);fill:#B5C1B2;}
	.st365{clip-path:url(#SVGID_4_);fill:#A4C098;}
	.st366{clip-path:url(#SVGID_4_);fill:#C3D5B8;}
	.st367{clip-path:url(#SVGID_4_);fill:#172718;}
	.st368{clip-path:url(#SVGID_4_);fill:#CCE4B9;}
	.st369{fill:#7C7B7A;}
	.st370{fill:#AEAEAE;}
	.st371{fill:#EEEEEE;}
	.st372{fill:#020202;}
	.st373{fill:#040404;}
	.st374{fill:#050404;}
	.st375{fill:#7B7A79;}
	.st376{fill:#EFBF20;}
	.st377{fill:#868686;}
	.st378{fill:#999999;}
	.st379{fill:#1A1A1A;}
	.st380{fill:#FFFFFF;}
	.st381{fill:#009245;}
	.st382{fill:#333333;}
	.st383{fill:#E6E6E6;}
	.st384{fill:#4C3A2E;}
	.st385{fill:#F94C22;}
	.st386{fill:#F5683A;}
	.st387{fill:#AD3B16;}
	.st388{fill:#9AE0E6;}
	.st389{fill:#ACE7EC;}
	.st390{fill:#AFDDE0;}
	.st391{fill:#FDCD47;}
	.st392{fill:#8C776B;}
	.st393{fill:#674D3E;}
	.st394{fill:#766053;}
	.st395{fill:#E8E9EE;}
	.st396{fill:#9DB0B6;}
	.st397{fill:#C87523;}
	.st398{fill:#E94756;}
	.st399{fill:#84C00D;}
	.st400{fill:#D1D3D7;}
	.st401{fill:#9FD8F1;}
	.st402{fill:#C87423;}
	.st403{fill:#413740;}
</style>
<g>
	<path d="M157.87,231.23c10.13,18.58,3.22,38.15-9.21,47.85c-13.2,10.3-31.43,10.55-45.07,0.74c-11.69-8.41-21.2-28.2-10.21-48.59
		c-4.95,0-9.82,0.01-14.69-0.01c-0.67,0-0.8,0.3-0.78,0.86c0.03,0.58,0.05,1.16,0,1.74c-0.13,1.62-0.08,2.79,2.07,3.29
		c2.17,0.5,3.14,2.52,3.23,4.75c0.07,1.73,0.07,3.48,0.01,5.21c-0.11,3.19-2.23,5.34-5.42,5.37c-6.11,0.05-12.22,0.05-18.33,0
		c-3.21-0.03-5.32-2.13-5.45-5.33c-0.07-1.74-0.07-3.48,0-5.21c0.11-2.72,1.59-4.54,4.23-5.19c0.78-0.19,1.18-0.4,1.08-1.29
		c-0.15-1.34,0.55-3.08-0.29-3.95c-0.78-0.81-2.5-0.18-3.8-0.24c-1.05-0.05-2.11,0.05-3.14-0.21c-3.5-0.9-5.95-3.9-6.03-7.58
		c-0.08-3.63-0.08-7.27,0.01-10.9c0.06-2.33,0.97-4.51,1.57-6.74c6.49-23.87,13.02-47.73,19.53-71.59c1.15-4.21,4.02-6.4,8.4-6.4
		c33.39,0,66.79,0,100.18,0c4.3,0,7.21,2.2,8.33,6.3c6.87,25.18,13.73,50.36,20.61,75.54c0.38,1.38,0.57,2.77,0.56,4.2
		c-0.03,3.05,0.02,6.11-0.02,9.16c-0.05,4.8-3.37,8.13-8.14,8.21c-1.21,0.02-2.43,0.1-3.63-0.02c-1.32-0.14-1.67,0.42-1.5,1.59
		c0.04,0.26,0.02,0.53,0,0.79c-0.14,1.7-0.14,3.03,2.14,3.57c2.11,0.5,3.04,2.48,3.14,4.65c0.08,1.79,0.09,3.58,0,5.37
		c-0.15,3.2-2.27,5.26-5.5,5.28c-6.06,0.04-12.11,0.04-18.17,0c-3.34-0.02-5.46-2.21-5.53-5.59c-0.03-1.58-0.03-3.16,0-4.74
		c0.06-2.86,1.55-4.77,4.33-5.43c0.75-0.18,1.05-0.39,1-1.19c-0.09-1.36,0.43-3.13-0.25-3.98c-0.71-0.89-2.56-0.27-3.91-0.28
		C165.5,231.21,161.77,231.23,157.87,231.23z"/>
	<path class="st0" d="M133.85,280.45c-7.74,2.29-15.2,1.38-22.35-2.14c-12.37-6.09-19.42-19.58-17.39-33.04
		c2.08-13.81,12.6-24.52,26.34-26.82c4.41-0.74,8.79-0.68,13.1,0.66c6.4,2.66,10.82,7.5,14.28,13.27c3.38,5.64,4.99,11.83,4.74,18.4
		c-0.31,8.2-3.05,15.5-8.45,21.78C141.23,275.9,137.94,278.68,133.85,280.45z"/>
	<path class="st1" d="M193.9,215.3c-2.84,0.01-5.69,0.04-8.53,0.04c-14.85,0-29.7,0-44.55,0.01c-0.96,0-1.85-0.16-2.76-0.48
		c-8.35-2.93-16.7-2.93-25.03,0.08c-0.75,0.27-1.5,0.4-2.31,0.4c-18.59-0.01-37.17-0.01-55.76-0.01c-3,0-4.05-1.32-3.27-4.17
		c6.86-25.2,13.72-50.39,20.59-75.59c0.5-1.83,1.29-2.45,3.14-2.45c32.28-0.01,64.55,0,96.83,0c0.26,0,0.52,0.04,0.78,0.06
		c0.19,0.18,0.44,0.33,0.53,0.57c0.89,2.52,1.77,5.04,2,7.73c-0.15,0.36-0.28,0.74-0.8,0.48c-0.44-0.31-0.73-0.76-1.05-1.17
		c-0.94-1.2-2.17-1.8-3.7-1.78c-0.53,0.01-1.05,0-1.58,0c-28.55,0-57.09,0-85.64,0c-4.32,0-5.41,0.78-6.57,5.01
		c-4.42,16.1-8.75,32.22-13.16,48.32c-0.93,3.4-1.7,6.86-2.83,10.2c-1.4,4.14,1.83,7.02,5.37,6.99c16.54-0.14,33.07-0.06,49.61-0.06
		c23.38,0,46.77,0,70.15,0c3.88,0,5.44-1.3,6.16-5.09c0.13-0.45,0.13-0.97,0.71-1.13c1.66,3.31,2.69,6.78,2.61,10.51
		C194.84,214.41,194.58,215.03,193.9,215.3z"/>
	<path class="st1" d="M193.9,215.3c1.31-2.26,0.39-4.46-0.18-6.66c-0.46-1.76-0.94-3.52-1.41-5.28c-0.53-0.41-0.65-1.03-0.87-1.6
		c-0.19-0.58-0.38-1.16-0.46-1.77c-0.06-0.6-0.3-1.16-0.49-1.72c-0.19-0.58-0.38-1.15-0.45-1.76c-0.06-0.6-0.3-1.16-0.5-1.72
		c-0.18-0.59-0.39-1.17-0.5-1.78c-0.31-1.14-0.54-2.3-0.92-3.42c-0.35-1.15-0.56-2.33-0.95-3.46c-0.35-1.15-0.56-2.34-0.95-3.48
		c-0.35-1.15-0.56-2.34-0.95-3.48c-0.35-1.15-0.56-2.34-0.95-3.48c-0.35-1.15-0.56-2.34-0.95-3.48c-0.35-1.15-0.56-2.34-0.95-3.48
		c-0.35-1.15-0.56-2.34-0.95-3.48c-0.35-1.15-0.56-2.34-0.95-3.48c-0.35-1.15-0.56-2.34-0.95-3.48c-0.35-1.15-0.56-2.34-0.95-3.48
		c-0.35-1.15-0.56-2.34-0.95-3.48c-0.35-1.15-0.56-2.33-0.95-3.47c-0.35-1.15-0.56-2.33-0.95-3.47c-0.4-0.97-0.38-2.01-0.52-3.03
		c-0.57-2.77-1.39-5.48-2.23-8.18c5.14-0.31,5.25-0.23,6.55,4.55c6.62,24.29,13.24,48.58,19.86,72.86c0.12,0.46,0.27,0.91,0.37,1.37
		c0.36,1.72-0.69,3.2-2.45,3.33C196.22,215.4,195.05,215.32,193.9,215.3z"/>
	<path class="st2" d="M133.85,280.45c2.18-1.63,4.54-2.97,6.62-4.77c3.55-3.09,6.27-6.77,8.31-10.94
		c2.47-5.08,3.64-10.51,3.37-16.15c-0.4-8.41-3.36-15.81-9.13-22.04c-2.77-2.99-5.95-5.43-9.48-7.44c4.39,0.85,8.23,2.91,11.67,5.65
		c7.85,6.23,11.94,14.45,12.25,24.43c0.44,14.07-9.09,27.07-22.55,31.07C134.58,280.35,134.21,280.38,133.85,280.45z"/>
	<path class="st3" d="M51.37,220.57c17.07,0,33.98,0,50.89,0c-1.56,1.78-3.16,3.26-4.6,4.91c-0.45,0.52-1,0.5-1.58,0.5
		c-13.73,0-27.46,0.01-41.19-0.01c-2.65,0-3.51-0.89-3.53-3.5C51.36,221.8,51.37,221.12,51.37,220.57z"/>
	<path class="st3" d="M154.04,225.82c-1.55-1.77-3.1-3.54-4.65-5.31c-0.22,0.06,0.07,0.19,0.3,0.19c14.68-0.01,29.37-0.01,44.05,0
		c0.26,0,0.52,0.03,0.79,0.05c0.86,1.38,0.57,2.83,0.23,4.27c-0.22,0.92-0.97,0.94-1.76,0.94c-6-0.01-11.99-0.01-17.99-0.01
		c-6.42,0-12.84,0-19.25-0.01C155.19,225.92,154.6,226.03,154.04,225.82z"/>
	<path class="st3" d="M68.75,241.89c2.63,0,5.27,0.03,7.9-0.02c0.92-0.02,1.27,0.18,1.28,1.2c0.06,4.15,0.1,4.15-4.02,4.15
		c-4.42,0-8.85-0.03-13.27,0.02c-1,0.01-1.36-0.22-1.37-1.3c-0.03-4.05-0.07-4.05,3.95-4.05C65.06,241.89,66.91,241.89,68.75,241.89
		z"/>
	<path class="st3" d="M173.42,246.92c-0.02-1.61-0.67-3.66,0.22-4.71c0.86-1.01,2.95-0.28,4.5-0.31c2.82-0.04,5.65,0.01,8.48,0.03
		c0.89,1.41,0.53,2.93,0.36,4.42c-0.05,0.45-0.36,0.75-0.87,0.74C181.88,247,177.64,247.34,173.42,246.92z"/>
	<path class="st4" d="M68.47,236.55c-3.86,0-3.8,0-3.87-3.81c-0.02-1.3,0.41-1.61,1.61-1.54c1.78,0.09,3.57,0.05,5.36,0.01
		c0.74-0.01,1.08,0.25,1,1.01c-0.01,0.05,0,0.11,0,0.16C72.75,236.55,72.75,236.55,68.47,236.55z"/>
	<path class="st4" d="M182.53,236.55c-3.86,0-3.81,0-3.85-3.83c-0.01-1.13,0.23-1.61,1.47-1.53c1.78,0.11,3.57,0.07,5.36,0.01
		c0.92-0.03,1.13,0.31,1.16,1.19C186.78,236.55,186.81,236.55,182.53,236.55z"/>
	<path class="st5" d="M154.04,225.82c9.36-0.02,18.73-0.04,28.09-0.06c3.47-0.01,6.95-0.08,10.42,0.04
		c1.51,0.05,1.97-0.61,1.99-1.91c0.01-1.05,0-2.1-0.01-3.16c1.51-0.11,3.05,0.11,4.55-0.32c0.29-0.08,0.65-0.32,0.84,0.3
		c0.94,3.06-0.63,5.3-3.82,5.31c-13.52,0.03-27.04,0.04-40.55,0.04C155.04,226.06,154.49,226.24,154.04,225.82z"/>
	<path class="st5" d="M173.42,246.92c3.99,0.01,7.98,0.01,11.97,0.06c0.96,0.01,1.32-0.31,1.26-1.27c-0.07-1.26-0.03-2.52-0.04-3.78
		c1.41-0.01,2.83,0.01,4.24-0.06c0.92-0.05,1.12,0.34,1.15,1.2c0.13,4.16,0.15,4.15-3.99,4.17c-4.35,0.01-8.7,0.05-13.05,0.03
		C174.45,247.26,173.8,247.6,173.42,246.92z"/>
	<path d="M115.85,269.75c0.58-5.57,1.09-10.81,1.7-16.04c0.12-1.01-0.09-1.35-1.09-1.28c-0.84,0.06-1.68,0-2.53,0.01
		c-1.82,0.04-3.21-0.69-3.88-2.4c-0.65-1.67-0.29-3.17,0.98-4.49c3.99-4.13,7.95-8.28,11.93-12.42c1.79-1.86,3.58-3.72,5.38-5.57
		c1.54-1.58,3.19-1.99,4.82-1.21c1.65,0.79,2.44,2.39,2.21,4.48c-0.54,5.07-1.06,10.15-1.66,15.22c-0.11,0.94,0.08,1.24,1.01,1.18
		c0.89-0.06,1.79,0,2.69-0.02c1.76-0.03,3.09,0.68,3.78,2.31c0.7,1.66,0.38,3.19-0.88,4.5c-3.54,3.69-7.07,7.38-10.6,11.06
		c-2.37,2.47-4.72,4.96-7.14,7.38c-1.34,1.34-2.96,1.57-4.48,0.8C116.49,272.48,115.84,271.13,115.85,269.75z"/>
	<path d="M191.98,204.35c-0.45,4.02-2.27,5.66-6.31,5.66c-40.03,0-80.05-0.04-120.08,0.07c-4.38,0.01-7.01-3.5-5.86-7.6
		c5.54-19.73,10.85-39.53,16.24-59.31c0.94-3.46,2.55-4.72,6.08-4.72c29.07,0,58.14,0.01,87.21-0.02c2.74,0,4.65,1.05,5.74,3.57
		c0.7,0.67,0.57,1.63,0.89,2.44c0.4,1.13,0.64,2.31,0.95,3.46c0.39,1.14,0.64,2.31,0.95,3.47c0.39,1.14,0.64,2.32,0.95,3.48
		c0.39,1.14,0.64,2.32,0.95,3.48c0.39,1.14,0.64,2.32,0.95,3.48c0.39,1.14,0.64,2.32,0.95,3.48c0.39,1.14,0.64,2.32,0.95,3.48
		c0.39,1.14,0.64,2.32,0.95,3.48c0.39,1.14,0.64,2.32,0.95,3.48c0.39,1.14,0.64,2.32,0.95,3.48c0.39,1.14,0.64,2.32,0.95,3.48
		c0.39,1.14,0.64,2.32,0.95,3.48c0.39,1.13,0.63,2.31,0.95,3.47c0.39,1.12,0.63,2.29,0.94,3.43c0.17,0.67,0.29,1.36,0.56,2.01
		c0.23,0.65,0.41,1.31,0.52,1.99c0.18,0.5,0.17,1.05,0.44,1.52c0.23,0.64,0.39,1.3,0.51,1.98c0.18,0.51,0.18,1.06,0.45,1.54
		C192.08,202.78,191.7,203.62,191.98,204.35z"/>
	<path class="st6" d="M175.62,144.55c-0.2-0.85-0.4-1.7-0.61-2.54c0.08-0.21,0.17-0.41,0.25-0.62c0.59,0.86,0.48,1.95,0.92,2.86
		C176.03,144.41,175.95,144.71,175.62,144.55z"/>
	<path class="st7" d="M191.98,204.35c-0.19-0.76-0.37-1.52-0.56-2.29c0.05-0.15,0.15-0.26,0.29-0.33c0.39,0.47,0.49,1.05,0.59,1.63
		C191.93,203.6,192.07,204.01,191.98,204.35z"/>
	<path class="st8" d="M175.62,144.55c0.19-0.1,0.38-0.2,0.57-0.3c0.31,1.16,0.63,2.32,0.94,3.48c-0.15,0.17-0.23,0.47-0.56,0.3
		C176.25,146.86,175.93,145.71,175.62,144.55z"/>
	<path class="st8" d="M176.57,148.02c0.19-0.1,0.38-0.2,0.56-0.3c0.32,1.16,0.63,2.32,0.95,3.48c-0.15,0.17-0.23,0.47-0.56,0.3
		C177.2,150.34,176.88,149.18,176.57,148.02z"/>
	<path class="st8" d="M177.52,151.5c0.19-0.1,0.38-0.2,0.56-0.3c0.32,1.16,0.63,2.32,0.95,3.48c-0.15,0.17-0.23,0.47-0.56,0.3
		C178.15,153.82,177.83,152.66,177.52,151.5z"/>
	<path class="st8" d="M178.46,154.98c0.19-0.1,0.38-0.2,0.56-0.3c0.32,1.16,0.63,2.32,0.95,3.48c-0.15,0.17-0.23,0.47-0.56,0.3
		C179.1,157.29,178.78,156.14,178.46,154.98z"/>
	<path class="st8" d="M179.41,158.45c0.19-0.1,0.38-0.2,0.56-0.3c0.32,1.16,0.63,2.32,0.95,3.48c-0.15,0.17-0.23,0.47-0.56,0.3
		C180.04,160.77,179.73,159.61,179.41,158.45z"/>
	<path class="st8" d="M180.36,161.93c0.19-0.1,0.38-0.2,0.56-0.3c0.32,1.16,0.63,2.32,0.95,3.48c-0.15,0.17-0.23,0.47-0.56,0.3
		C180.99,164.25,180.68,163.09,180.36,161.93z"/>
	<path class="st8" d="M187.95,189.74c-0.32-1.16-0.63-2.32-0.95-3.48c0.13-0.2,0.23-0.47,0.57-0.3c0.32,1.16,0.63,2.32,0.95,3.48
		C188.36,189.61,188.28,189.91,187.95,189.74z"/>
	<path class="st8" d="M187.56,185.96c-0.19,0.1-0.38,0.2-0.57,0.3c-0.32-1.16-0.63-2.32-0.95-3.48c0.13-0.2,0.23-0.47,0.57-0.3
		C186.93,183.64,187.25,184.8,187.56,185.96z"/>
	<path class="st8" d="M186.62,182.48c-0.19,0.1-0.38,0.2-0.57,0.3c-0.32-1.16-0.63-2.32-0.95-3.48c0.13-0.2,0.23-0.47,0.57-0.3
		C185.98,180.17,186.3,181.33,186.62,182.48z"/>
	<path class="st8" d="M187.95,189.74c0.19-0.1,0.38-0.2,0.56-0.3c0.31,1.16,0.63,2.32,0.94,3.49c-0.14,0.17-0.23,0.45-0.55,0.3
		C188.58,192.06,188.26,190.9,187.95,189.74z"/>
	<path class="st8" d="M185.67,179.01c-0.19,0.1-0.38,0.2-0.57,0.3c-0.32-1.16-0.63-2.32-0.95-3.48c0.13-0.2,0.23-0.47,0.57-0.3
		C185.04,176.69,185.35,177.85,185.67,179.01z"/>
	<path class="st8" d="M184.72,175.53c-0.19,0.1-0.38,0.2-0.57,0.3c-0.32-1.16-0.63-2.32-0.95-3.48c0.13-0.2,0.23-0.47,0.57-0.3
		C184.09,173.21,184.4,174.37,184.72,175.53z"/>
	<path class="st8" d="M181.31,165.41c0.19-0.1,0.38-0.2,0.56-0.3c0.32,1.16,0.63,2.32,0.95,3.48c-0.15,0.17-0.23,0.47-0.56,0.3
		C181.94,167.72,181.62,166.56,181.31,165.41z"/>
	<path class="st8" d="M182.26,168.88c0.19-0.1,0.38-0.2,0.56-0.3c0.32,1.16,0.63,2.32,0.95,3.48c-0.19,0.1-0.38,0.2-0.57,0.3
		C182.89,171.2,182.57,170.04,182.26,168.88z"/>
	<path class="st9" d="M188.9,193.22c0.18-0.1,0.37-0.2,0.55-0.3c0.12,0.62,0.25,1.24,0.38,1.87c0.13,0.32-0.02,0.37-0.3,0.32
		C189.04,194.57,189.23,193.81,188.9,193.22z"/>
	<path class="st10" d="M189.53,195.11c0.1-0.11,0.2-0.21,0.3-0.32c0.39,0.47,0.49,1.04,0.59,1.61c-0.22,0.16-0.07,0.51-0.32,0.65
		C189.72,196.46,189.62,195.79,189.53,195.11z"/>
	<path class="st10" d="M191.04,200.53c-0.37-0.6-0.48-1.27-0.57-1.95c0.07-0.13,0.1-0.31,0.3-0.33c0.38,0.47,0.49,1.05,0.59,1.62
		C191.14,200.04,191.3,200.39,191.04,200.53z"/>
	<path class="st9" d="M190.77,198.26c-0.1,0.11-0.2,0.22-0.3,0.33c-0.44-0.43-0.35-1-0.38-1.53c0.11-0.22,0.21-0.43,0.32-0.65
		C190.53,197.02,190.65,197.64,190.77,198.26z"/>
	<path class="st9" d="M191.04,200.53c0.11-0.22,0.21-0.44,0.32-0.65c0.12,0.62,0.24,1.24,0.36,1.85c-0.1,0.11-0.19,0.22-0.29,0.33
		C190.98,201.63,191.07,201.07,191.04,200.53z"/>
	<path class="st11" d="M121.81,263.99c0.46-4.44,0.93-8.89,1.36-13.33c0.23-2.41-0.71-3.42-3.1-3.45c-0.93-0.01-1.87,0-3.25,0
		c4.29-4.47,8.32-8.67,12.54-13.06c0.3,2.34-0.22,4.34-0.38,6.35c-0.23,2.83-0.6,5.64-0.86,8.47c-0.22,2.48,0.71,3.46,3.23,3.49
		c0.88,0.01,1.76,0,3.1,0c-4.28,4.46-8.29,8.64-12.3,12.81C121.31,265.04,121.76,264.46,121.81,263.99z"/>
	<path class="st12" d="M121.81,263.99c0.23,0.4-0.22,0.97,0.34,1.28c-0.18,0.38-0.45,0.68-0.61,0.05
		C121.43,264.9,121.5,264.39,121.81,263.99z"/>
	<path class="st13" d="M142.12,204.7c-4.16,0-8.31-0.04-12.46,0.02c-1.12,0.02-1.42-0.34-1.41-1.43c0.05-5.26,0.05-10.52,0-15.78
		c-0.01-1,0.24-1.36,1.31-1.35c7.63,0.05,15.25,0.02,22.88,0.02c0.63,0,1.22-0.1,1.33,0.87c0.61,5.48,1.25,10.96,1.95,16.44
		c0.13,1.04-0.18,1.23-1.14,1.22C150.43,204.68,146.27,204.7,142.12,204.7z"/>
	<path class="st13" d="M109.22,204.7c-4.16,0-8.31-0.03-12.47,0.02c-1.07,0.01-1.32-0.27-1.18-1.33c0.69-5.42,1.33-10.85,1.93-16.28
		c0.09-0.79,0.45-0.93,1.12-0.93c7.78,0.01,15.57,0.02,23.35-0.01c0.87,0,1.05,0.35,1.04,1.13c-0.02,5.42-0.04,10.84,0.01,16.25
		c0.01,1.09-0.51,1.16-1.35,1.15C117.53,204.69,113.37,204.7,109.22,204.7z"/>
	<path class="st13" d="M110.63,180.87c-3.68,0-7.36-0.01-11.04,0.01c-0.75,0-1.31,0.02-1.18-1.05c0.69-5.58,1.34-11.16,1.98-16.75
		c0.08-0.71,0.47-0.81,1.07-0.81c6.84,0.01,13.67,0.02,20.51-0.01c0.85,0,1.07,0.3,1.06,1.1c-0.03,5.47-0.03,10.94,0,16.41
		c0.01,0.94-0.35,1.13-1.2,1.12C118.1,180.85,114.36,180.87,110.63,180.87z"/>
	<path class="st13" d="M139.57,162.28c3.37,0,6.73,0.01,10.1-0.01c0.72-0.01,1.15,0.1,1.25,0.98c0.6,5.38,1.23,10.75,1.93,16.12
		c0.17,1.32-0.26,1.55-1.47,1.54c-7.2-0.05-14.41-0.05-21.61,0c-1.14,0.01-1.54-0.22-1.53-1.45c0.07-5.26,0.06-10.52,0.01-15.77
		c-0.01-1.08,0.26-1.45,1.39-1.42C132.94,162.32,136.26,162.28,139.57,162.28z"/>
	<path class="st13" d="M77.27,204.7c-3.73,0-7.47-0.03-11.2,0.02c-1.01,0.01-1.41-0.13-1.08-1.28c1.52-5.4,2.98-10.83,4.45-16.25
		c0.19-0.69,0.48-1.02,1.29-1.01c6.84,0.04,13.67,0.03,20.51,0.01c0.73,0,1.04,0.18,0.94,0.98c-0.68,5.58-1.33,11.16-1.97,16.75
		c-0.11,0.99-0.82,0.78-1.41,0.78C84.95,204.71,81.11,204.7,77.27,204.7z"/>
	<path class="st13" d="M82.03,180.87c-3.16,0-6.31-0.02-9.47,0.01c-0.97,0.01-1.4-0.04-1.05-1.26c1.55-5.4,3.02-10.82,4.44-16.26
		c0.24-0.93,0.67-1.12,1.52-1.11c5.47,0.03,10.94,0.04,16.42,0c0.99-0.01,1.27,0.24,1.14,1.24c-0.69,5.48-1.33,10.96-1.94,16.44
		c-0.1,0.91-0.58,0.94-1.27,0.94C88.55,180.86,85.29,180.87,82.03,180.87z"/>
	<path class="st13" d="M181.27,204.62c-6.37,0.03-12.74,0.05-19.11,0.09c-0.71,0-1.02-0.23-1.11-0.97
		c-0.61-5.38-1.25-10.77-1.93-16.14c-0.14-1.09,0.12-1.45,1.28-1.43c5.37,0.09,10.74,0.09,16.11,0.12c1.14,1.76,1.31,3.84,1.87,5.78
		c1.01,3.46,1.91,6.96,2.87,10.44C181.44,203.2,181.79,203.91,181.27,204.62z"/>
	<path class="st13" d="M139.07,156.95c-3.21,0-6.42-0.02-9.63,0.02c-0.87,0.01-1.2-0.23-1.19-1.15c0.05-3.68,0.04-7.37,0.01-11.06
		c-0.01-0.82,0.27-1.1,1.09-1.1c6.05,0.03,12.11,0.02,18.16,0.01c0.67,0,1.08,0.14,1.17,0.91c0.41,3.71,0.84,7.42,1.32,11.13
		c0.12,0.96-0.1,1.29-1.13,1.27C145.6,156.91,142.33,156.95,139.07,156.95z"/>
	<path class="st13" d="M112.01,156.95c-3.21,0-6.42-0.03-9.63,0.02c-0.88,0.01-1.21-0.21-1.09-1.15c0.48-3.76,0.9-7.52,1.33-11.28
		c0.08-0.67,0.41-0.87,1.04-0.87c6.11,0.01,12.21,0.02,18.32-0.01c0.88,0,1.05,0.38,1.05,1.14c-0.02,3.69-0.04,7.37,0.01,11.06
		c0.01,0.97-0.42,1.11-1.23,1.1C118.53,156.94,115.27,156.95,112.01,156.95z"/>
	<path class="st13" d="M158.24,179.94c-0.66-5.67-1.33-11.35-1.99-17.02c-0.01-0.73,0.56-0.5,0.91-0.5
		c3.94-0.02,7.89,0.02,11.83-0.03c1.39-0.02,1.62,0.96,1.89,1.92c1.06,3.91,2.15,7.81,3.19,11.72c0.27,1.02,0.64,2.01,0.81,3.05
		c0.22,1.33-0.02,1.64-1.32,1.64c-4.68,0.01-9.36,0-14.04,0.01C158.88,180.75,158.36,180.7,158.24,179.94z"/>
	<path class="st13" d="M86.61,156.95c-2.53,0-5.05-0.04-7.58,0.02c-0.98,0.02-1.33-0.18-1.02-1.24c1.06-3.68,2.07-7.38,3.04-11.09
		c0.2-0.78,0.57-0.98,1.32-0.98c4.63,0.02,9.26,0.03,13.89,0c0.83,0,1.11,0.23,1.01,1.09c-0.48,3.81-0.92,7.62-1.34,11.43
		c-0.1,0.9-0.71,0.75-1.26,0.75C91.97,156.96,89.29,156.95,86.61,156.95z"/>
	<path class="st13" d="M168.31,156.88c-3.95,0.02-7.9,0.04-11.84,0.08c-0.67,0.01-1.05-0.12-1.13-0.92
		c-0.39-3.82-0.85-7.63-1.28-11.45c-0.29-0.71,0.15-0.82,0.69-0.82c3.15-0.01,6.3,0,9.46-0.01c0.71,0,1.08,0.39,1.26,0.98
		c1.12,3.67,2.12,7.37,3.03,11.09C168.58,156.19,168.56,156.56,168.31,156.88z"/>
	<path class="st13" d="M158.24,179.94c0.34,0.55,0.84,0.67,1.47,0.67c4.53-0.02,9.06-0.03,13.59,0c1.16,0.01,1.46-0.28,1.12-1.48
		c-1.42-4.99-2.76-10.01-4.07-15.03c-0.3-1.15-0.8-1.62-2.06-1.59c-3.47,0.09-6.95,0.02-10.43,0.04c-0.55,0-1.18-0.2-1.61,0.37
		c-0.36-0.69,0.14-0.69,0.58-0.69c5.79,0.01,11.57,0.03,17.36,0.03c0.64,0,0.92,0.26,1.08,0.87c1.5,5.58,3,11.15,4.56,16.71
		c0.28,0.99-0.13,1.04-0.89,1.04c-6.52,0-13.04,0.02-19.57,0.04C158.7,180.92,158.05,180.94,158.24,179.94z"/>
	<path class="st13" d="M181.27,204.62c-1.31-4.94-2.65-9.88-3.93-14.83c-0.3-1.16-0.86-2.26-0.83-3.49
		c4.95-0.43,4.95-0.43,6.21,4.18c1.15,4.21,2.24,8.43,3.47,12.61c0.42,1.41,0.06,1.74-1.29,1.62
		C183.7,204.59,182.48,204.64,181.27,204.62z"/>
	<path class="st13" d="M168.31,156.88c-1.06-3.93-2.13-7.87-3.16-11.81c-0.2-0.76-0.51-1.17-1.38-1.16
		c-2.89,0.04-5.77,0.02-8.66,0.01c-0.51,0-0.95,0.05-1.05,0.66c-0.39-0.68-0.16-0.97,0.59-0.97c4.84,0.02,9.68,0.04,14.52,0.04
		c0.66,0,0.89,0.34,1.05,0.92c1.01,3.75,2.03,7.5,3.08,11.25c0.23,0.83,0,1.16-0.88,1.12C171.04,156.89,169.67,156.9,168.31,156.88z
		"/>
</g>
<g>
	<path d="M532.17,222.89c0-1.31,0-2.63,0-3.94c0.37-1.5,0.95-1.99,2.66-2.12c1.23-0.09,1.36,0.11,1.36-1.53c0-14.25,0-28.5,0-42.75
		c0-0.26-0.01-0.51-0.01-0.77c-0.01-0.44-0.2-0.69-0.66-0.71c-0.2-0.01-0.4-0.03-0.6-0.06c-1.7-0.24-2.34-0.82-2.75-2.44
		c0-2.74,0-5.48,0-8.22c0.4-1.6,1.19-2.24,2.9-2.32c1.04-0.05,1.1-0.11,1.11-1.16c0.01-1.31-0.01-2.63,0.01-3.94
		c0.02-1.53,0.96-2.53,2.49-2.59c1.68-0.06,3.37-0.07,5.05,0c1.52,0.07,2.48,1.06,2.56,2.58c0.06,1.25,0.01,2.51,0.02,3.77
		c0,0.26,0,0.51,0.02,0.77c0.04,0.33,0.19,0.52,0.55,0.51c0.34-0.01,0.53-0.17,0.58-0.51c0.04-0.28,0.04-0.57,0.04-0.85
		c0-2.83,0-5.65,0-8.48c0-2.01,0.68-2.87,2.62-3.29c0.46-0.1,0.62-0.33,0.63-0.76c0.01-0.37,0-0.74,0.01-1.11
		c0.06-1.36,0.86-2.19,2.21-2.24c1.34-0.04,2.69-0.05,4.03,0c1.44,0.06,2.13,0.8,2.16,2.22c0.01,0.37,0.01,0.74-0.01,1.11
		c0.02,0,0.02-0.04,0.02-0.12c-0.01-2.66,0.55-3.23,3.19-3.23c0.89,0,1.77-0.01,2.66,0c1.88,0.02,2.59,0.73,2.62,2.59
		c0,0.17,0,0.34,0,0.51c0-0.31,0-0.62,0-0.93c0-1.18,0.72-2.07,1.88-2.14c1.51-0.09,3.03-0.1,4.54,0c1.24,0.08,1.95,0.91,1.98,2.15
		c0.01,0.29,0,0.57,0,0.86c0-0.31-0.01-0.61,0-0.92c0.04-1.15,0.72-1.98,1.87-2.08c1.57-0.13,3.14-0.11,4.71-0.01
		c1.11,0.07,1.82,0.97,1.82,2.1c0,0.34,0,0.69,0,1.03c0.01-0.32-0.01-0.64,0.01-0.96c0.11-1.46,0.82-2.16,2.3-2.21
		c1.23-0.04,2.46-0.02,3.68-0.01c1.66,0.02,2.46,0.83,2.48,2.48c0,0.29,0,0.57,0,0.99c0.02-0.56,0-0.99,0.01-1.41
		c0.05-1.19,0.69-1.94,1.89-2.02c1.51-0.11,3.03-0.09,4.54-0.01c1.06,0.06,1.82,0.89,1.94,1.95c0.02,0.2,0.02,0.4,0.02,0.6
		c0.02,1.28,0.02,1.28,1.23,1.63c1.21,0.35,2,1.4,2.01,2.77c0.03,2.91,0.01,5.83,0.01,8.74c0,0.31-0.01,0.63,0.03,0.94
		c0.04,0.36,0.19,0.59,0.59,0.59c0.42,0.01,0.54-0.26,0.55-0.61c0.04-1.08,0.01-2.17,0.02-3.26c0-0.46-0.02-0.91,0.03-1.37
		c0.14-1.35,1.03-2.31,2.38-2.38c1.82-0.11,3.66-0.11,5.48,0c1.31,0.08,2.18,1.06,2.22,2.39c0.04,1.37,0,2.74,0.02,4.11
		c0.01,1.05,0.08,1.12,1.11,1.17c2.03,0.1,2.99,1.11,2.99,3.15c0,2.17,0,4.34,0,6.51c0,2.1-0.81,3.06-2.88,3.31
		c-1.03,0.12-1.23-0.1-1.23,1.41c0,14.34,0,28.67,0,43.01c0,1.29,0,1.28,1.3,1.4c0.57,0.05,1.14,0.13,1.65,0.41
		c0.81,0.45,1.14,1.17,1.15,2.06c0.01,1.09,0.03,2.17-0.01,3.26c-0.05,1.39-0.86,2.19-2.25,2.3c-0.34,0.03-0.69,0.02-1.03,0.02
		c-27.1,0-54.2,0-81.31,0c-0.51,0-1.03,0.04-1.54-0.08C532.86,224.55,532.29,223.92,532.17,222.89z"/>
	<path class="st16" d="M532.17,168.58c0.59,1.61,1.77,2.31,3.45,2.16c0.58-0.05,0.78,0.12,0.78,0.74c-0.02,14.98-0.02,29.95,0,44.93
		c0,0.62-0.2,0.82-0.78,0.74c-0.17-0.02-0.34,0.01-0.51-0.01c-1.42-0.11-2.43,0.44-2.94,1.81
		C532.17,202.16,532.17,185.37,532.17,168.58z"/>
	<path class="st17" d="M539.01,215.02c-0.02-0.28-0.05-0.57-0.05-0.85c0-14.16,0-28.31-0.02-42.47c0-0.69,0.07-0.97,0.9-0.97
		c22.32,0.03,44.64,0.02,66.96,0.02c0.26,0,0.51,0.03,0.77,0.05c0.22,0.25,0.26,0.56,0.26,0.88c0.01,1.2,0.03,2.4-0.01,3.6
		c-0.03,0.86-0.23,1.03-1.09,1.08c-1.14,0.06-2.28-0.11-3.41,0.11c-0.55,0.19-0.86,0.54-0.79,1.15c0.07,0.63,0.54,0.83,1.06,0.92
		c0.96,0.16,1.93,0.04,2.89,0.08c0.41,0.02,0.87-0.08,1.19,0.3c0.19,0.38,0.15,0.78,0.15,1.18c0,6.31,0.07,12.62-0.02,18.93
		c-0.06,4.22-1.63,7.88-4.54,10.98c-3.44,3.66-7.7,5.27-12.66,5.27c-16.68,0-33.36,0-50.03-0.01
		C540.05,215.27,539.49,215.39,539.01,215.02z"/>
	<path class="st18" d="M539.01,215.02c17.44,0,34.88,0.02,52.31-0.02c7.92-0.02,14.52-5.78,15.92-13.26
		c0.21-1.12,0.33-2.24,0.33-3.38c-0.01-6.51,0-13.01,0-19.52c0.25-0.24,0.57-0.21,0.88-0.23c0.34-0.02,0.68-0.05,1.01-0.16
		c0.53-0.18,0.79-0.54,0.72-1.1c-0.07-0.55-0.44-0.77-0.95-0.79c-1.28-0.05-2.55-0.01-3.83-0.02c-0.48,0-0.97,0.01-1.45-0.01
		c-0.31-0.01-0.64,0.02-0.85-0.28c1.11-0.34,2.25-0.1,3.37-0.15c1.09-0.04,1.09-0.01,1.09-1.12c0-1.39,0-2.79,0-4.18
		c1.68-0.02,3.36-0.02,5.05-0.05c0.36-0.01,0.54,0.1,0.5,0.49c-0.02,0.17,0,0.34,0,0.51c0,14.81-0.01,29.62,0.02,44.43
		c0,0.78-0.18,1.05-0.98,0.98c-0.91-0.07-1.83-0.02-2.74-0.01c-0.66,0.01-1.16,0.26-1.37,0.94c-0.02,0.05-0.03,0.11-0.06,0.16
		c-0.51,0.75-3.05,0.64-3.49-0.15c-0.21-0.67-0.71-0.93-1.36-0.94c-0.29-0.01-0.57,0-0.86,0c-20.66,0-41.32,0-61.98,0
		c-1.34,0-1.35,0-1.34-1.36C538.96,215.53,538.99,215.27,539.01,215.02z"/>
	<path class="st19" d="M550.34,156.07c-0.01-2.6-0.01-5.19-0.04-7.79c-0.01-0.5,0.19-0.63,0.65-0.62c0.91,0.03,1.83,0.01,2.74,0.01
		c13.82,0,27.63,0,41.45,0c0.37,0,0.74,0.02,1.11,0.03c0.54,0.97,0.29,2.01,0.24,3.01c-0.13,2.65-1.72,4.66-4.14,5.4
		c-0.58,0.18-1.17,0.23-1.77,0.23c-12.98,0-25.96,0-38.93,0C551.19,156.34,550.72,156.4,550.34,156.07z"/>
	<path class="st19" d="M534.77,166c-0.01-1.51,0-3.02-0.03-4.53c-0.01-0.49,0.16-0.68,0.64-0.63c0.23,0.02,0.46,0,0.68,0
		c18.11,0,36.22,0,54.33,0c0.83,0,1.62-0.04,1.95-1c0.06-0.16,0.16-0.27,0.32-0.33c1.04-0.04,2.08-0.29,3.09,0.16
		c0.3,0.88,0.93,1.18,1.84,1.18c4.7-0.02,9.39,0,14.09,0.01c0.37,0.47,0.25,0.97,0.09,1.47c-0.69,2.26-2.62,3.77-4.99,3.93
		c-0.34,0.02-0.68,0.02-1.03,0.02c-23.12,0-46.23,0-69.35-0.01C535.86,166.28,535.26,166.42,534.77,166z"/>
	<path class="st20" d="M534.77,166c23.95,0,47.89,0.01,71.84,0c3.14,0,5.25-2.82,5.07-5.14c1.66-0.01,3.31,0,4.97-0.03
		c0.51-0.01,0.7,0.14,0.7,0.68c-0.03,2-0.02,4,0,5.99c0.01,0.52-0.19,0.74-0.7,0.7c-0.26-0.02-0.51,0-0.77,0
		c-26.49,0-52.97,0-79.46,0c-1.94,0-1.64,0.24-1.67-1.69C534.74,166.34,534.76,166.17,534.77,166z"/>
	<path class="st20" d="M592.49,159.66c-0.05,0.06-0.1,0.12-0.15,0.18c-0.06-1.26-0.38-1.56-1.69-1.57c-12.99,0-25.97,0-38.96,0
		c-1.58,0-1.35,0.21-1.37-1.35c0-0.28,0.01-0.57,0.02-0.86c13.44,0,26.88,0,40.32,0c3.14,0,5.56-2.4,5.6-5.55
		c0.01-0.94,0-1.88,0-2.82c1.62-0.01,3.25-0.01,4.87-0.04c0.47-0.01,0.65,0.13,0.65,0.62c-0.02,3.1-0.02,6.21,0,9.31
		c0,0.52-0.17,0.7-0.69,0.68c-1.2-0.03-2.39,0.03-3.59-0.02c-0.95-0.04-1.53,0.3-1.75,1.23c-0.78,0.19-1.56,0.03-2.34,0.09
		C593.1,159.6,592.79,159.5,592.49,159.66z"/>
	<path class="st20" d="M608.94,219.67c2.57,0,5.14,0.01,7.7-0.01c0.51,0,0.69,0.13,0.7,0.67c0.03,1.73,0.05,1.73-1.68,1.73
		c-26.57,0-53.13,0-79.7,0c-1.26,0-1.26,0-1.19-1.23c0.41-0.36,0.92-0.27,1.39-0.27c4.85-0.01,9.7,0,14.56,0c19.55,0,39.1,0,58.65,0
		c0.55,0,1.12,0.1,1.72-0.26c-0.4-0.31-0.78-0.17-1.12-0.22C609.59,220.02,609.13,220.18,608.94,219.67z"/>
	<path class="st21" d="M608.94,219.67c0.71,0.3,1.46,0.07,2.19,0.14c0.19,0.02,0.43-0.05,0.5,0.21c0.06,0.22-0.11,0.37-0.25,0.51
		c-0.16,0.17-0.34,0.31-0.59,0.3c-0.14,0-0.29,0-0.43,0c-25.2,0-50.4,0-75.6-0.01c-0.06-1.15-0.06-1.15,1.1-1.15
		c22.1,0,44.2,0,66.3,0c0.26,0,0.51,0,0.77,0c1.22-0.02,1.55-0.36,1.56-1.59c0.15,0.15,0.24,0.36,0.52,0.35
		c0.84-0.02,1.68-0.02,2.51,0c0.29,0.01,0.36-0.22,0.51-0.36C607.98,218.82,608.15,219.42,608.94,219.67z"/>
	<path class="st22" d="M543.46,155.73c0,0.63-0.02,1.26,0.01,1.88c0.02,0.45-0.07,0.68-0.6,0.66c-1.11-0.04-2.22-0.03-3.33,0
		c-0.45,0.01-0.59-0.16-0.58-0.59c0.02-1.34,0.02-2.68,0-4.02c0-0.35,0.09-0.51,0.47-0.51c0.38,0,0.5,0.12,0.48,0.49
		c-0.02,0.54-0.03,1.08,0.01,1.62c0.05,0.79,0.62,1.32,1.32,1.3c0.7-0.02,1.21-0.56,1.24-1.36c0.02-0.48,0.01-0.97,0-1.45
		c-0.01-0.33-0.02-0.59,0.46-0.6c0.5-0.01,0.55,0.23,0.53,0.62C543.45,154.41,543.46,155.07,543.46,155.73z"/>
	<path class="st23" d="M613.11,155.7c0,0.66-0.02,1.31,0.01,1.97c0.02,0.44-0.13,0.61-0.59,0.6c-1.14-0.02-2.28-0.02-3.42,0
		c-0.37,0-0.5-0.13-0.5-0.5c0.01-1.37,0.01-2.74,0-4.1c0-0.35,0.09-0.51,0.48-0.51c0.42-0.01,0.55,0.15,0.53,0.55
		c-0.02,0.51-0.02,1.03,0,1.54c0.03,0.76,0.52,1.28,1.19,1.32c0.7,0.04,1.29-0.48,1.36-1.26c0.04-0.51,0.01-1.03,0.02-1.54
		c0-0.31-0.06-0.62,0.45-0.62c0.46,0,0.5,0.23,0.49,0.59C613.1,154.39,613.11,155.04,613.11,155.7z"/>
	<path class="st24" d="M563.43,145.1c-0.17,0-0.34,0-0.51,0c-0.88,0-1.18-0.45-0.93-1.31c0.09-0.3,0.28-0.22,0.46-0.23
		c0.48-0.01,0.97,0.05,1.45-0.02c0.8-0.11,1.03,0.21,0.96,0.97c-0.04,0.43-0.12,0.63-0.58,0.58
		C564,145.07,563.71,145.1,563.43,145.1z"/>
	<path class="st25" d="M571.78,145.1c-0.14,0-0.28,0-0.43,0c-0.91,0-1.21-0.42-0.96-1.29c0.08-0.29,0.27-0.24,0.46-0.24
		c0.66-0.01,1.31,0.01,1.97-0.01c0.67-0.02,0.43,0.47,0.43,0.78c0,0.31,0.21,0.81-0.45,0.77
		C572.46,145.08,572.12,145.1,571.78,145.1z"/>
	<path class="st25" d="M580.24,145.1c-0.2,0-0.4-0.02-0.6,0c-0.56,0.06-0.86-0.02-0.86-0.74c0-0.72,0.26-0.87,0.88-0.81
		c0.39,0.04,0.8,0.05,1.19,0c0.67-0.09,0.86,0.16,0.85,0.83c-0.01,0.63-0.21,0.8-0.78,0.72C580.7,145.07,580.47,145.1,580.24,145.1z
		"/>
	<path class="st24" d="M588.7,143.56c0.14,0,0.28,0,0.43,0c0.94,0,1.19,0.36,0.96,1.27c-0.07,0.29-0.24,0.26-0.44,0.26
		c-0.63,0-1.25-0.03-1.88,0.01c-0.48,0.03-0.54-0.19-0.56-0.6c-0.04-0.67,0.05-1.12,0.89-0.95
		C588.3,143.59,588.51,143.56,588.7,143.56z"/>
	<path class="st26" d="M555.04,145.1c-0.17,0-0.34,0-0.51,0c-0.93,0-1.18-0.35-0.95-1.28c0.07-0.29,0.24-0.26,0.43-0.26
		c0.48,0,0.96,0,1.44,0c0.93,0,1.19,0.36,0.96,1.27c-0.07,0.28-0.24,0.27-0.44,0.27C555.66,145.1,555.35,145.1,555.04,145.1z"/>
	<path class="st26" d="M597.11,145.1c-0.17,0-0.34,0-0.51,0c-0.87,0-1.19-0.47-0.92-1.31c0.09-0.29,0.29-0.22,0.46-0.22
		c0.62-0.01,1.25,0.01,1.87-0.01c0.34-0.01,0.49,0.06,0.5,0.46C598.55,145.1,598.58,145.1,597.11,145.1z"/>
	<path class="st27" d="M592.49,159.66c1.07-0.36,2.17-0.07,3.25-0.17c0,0.06,0,0.12,0.01,0.18
		C594.67,159.67,593.58,159.66,592.49,159.66z"/>
	<path d="M571.25,180.41c-0.9-0.69-1-0.99-0.64-2.04c0.22-0.64,0.45-1.29,0.69-1.93c0.5-1.32,1.3-1.91,2.72-1.91
		c2.54-0.01,5.08-0.02,7.62,0c2.11,0.02,3.27,1.68,2.57,3.68c-1.17,3.33-2.35,6.65-3.57,9.97c-0.25,0.67-0.14,0.82,0.57,0.79
		c1.23-0.05,2.45,0,3.68-0.02c1.09-0.02,1.95,0.38,2.49,1.35c0.54,0.97,0.41,1.91-0.18,2.83c-2.85,4.47-5.7,8.94-8.54,13.41
		c-1.18,1.85-2.37,3.7-3.53,5.56c-0.53,0.85-1.25,1.29-2.27,1.25c-0.8-0.03-1.6,0-2.4-0.01c-1.9-0.02-2.87-1.37-2.24-3.15
		c1.2-3.38,2.41-6.75,3.62-10.13c0.12-0.34,0.24-0.69,0.39-1.14c-1.7,0-3.31,0-4.93,0c-2.28-0.01-3.43-1.64-2.66-3.8
		c1.23-3.46,2.48-6.91,3.7-10.37c0.29-0.82,0.75-1.33,1.7-1.18c0.72,0,1,0.45,1.08,1.08c0.06,0.43-0.05,0.84-0.2,1.25
		c-1.1,3.11-2.23,6.22-3.32,9.33c-0.28,0.79-0.23,0.86,0.64,0.87c1.59,0.01,3.19-0.01,4.78,0.01c2.01,0.02,2.78,1.11,2.15,3.03
		c-0.2,0.59-0.5,1.15-0.62,1.77c-1.15,2.92-2.11,5.91-3.22,8.85c-0.29,0.77-0.27,0.76,0.59,0.77c0.59,0.01,1.02-0.16,1.35-0.69
		c3.69-5.81,7.38-11.6,11.06-17.41c0.1-0.16,0.24-0.32,0.24-0.62c-1.45-0.08-2.9-0.01-4.34-0.04c-2.08-0.41-3.06-1.97-2.4-3.98
		c0.97-2.95,2.08-5.87,3.12-8.8c0.1-0.3,0.21-0.59,0.33-0.88c0.21-0.52,0.08-0.72-0.5-0.71c-2,0.02-4,0.02-6,0
		c-0.57,0-0.9,0.21-1.09,0.75c-0.19,0.57-0.37,1.14-0.67,1.67C572.6,180.56,572.08,180.73,571.25,180.41z"/>
	<path class="st28" d="M574.34,200.96c0.05-0.69,0.38-1.3,0.6-1.94c0.6-1.72-0.05-2.67-1.85-2.67c-2.02-0.01-4.04,0-6.16,0
		c0.84-2.37,1.66-4.67,2.48-6.97c0.46-1.29,0.93-2.57,1.37-3.86c0.34-0.99,0.16-1.44-0.76-1.95c0.57-0.99,0.79-2.11,1.22-3.15
		c1.17,0.03,1.42-0.14,1.82-1.25c0.75-2.06,0.75-2.06,2.98-2.06c1.91,0,3.82,0,5.82,0c-0.96,2.69-1.88,5.29-2.81,7.89
		c-0.31,0.86-0.62,1.71-0.93,2.57c-0.75,2.11,0.01,3.48,2.2,3.99c0.23,0.38-0.04,0.65-0.22,0.92c-1.64,2.55-3.26,5.12-4.89,7.67
		C575.01,200.48,574.89,200.97,574.34,200.96z"/>
	<path d="M545.66,173.32c0.69,0.02,1.14,0.34,1.29,1.02c0.04,0.19,0.04,0.4,0.05,0.6c0.03,1.25,0.03,1.25,1.26,1.27
		c1.06,0.02,1.59,0.42,1.62,1.23c0.03,0.84-0.54,1.31-1.61,1.34c-0.2,0.01-0.4,0.02-0.6,0c-0.52-0.07-0.72,0.13-0.68,0.66
		c0.03,0.39,0.02,0.8-0.05,1.19c-0.12,0.69-0.59,1.03-1.28,1.01c-0.65-0.02-1.23-0.39-1.16-1.01c0.17-1.56-0.44-2.06-1.95-1.94
		c-0.67,0.05-1.03-0.57-1-1.25c0.02-0.69,0.41-1.09,1.1-1.21c0.56-0.09,1.27,0.23,1.65-0.16c0.37-0.38,0.06-1.09,0.15-1.65
		C544.57,173.74,544.98,173.38,545.66,173.32z"/>
	<path class="st29" d="M603.11,176.25c1.94-0.01,3.87-0.03,5.81-0.03c1.06,0,1.59,0.41,1.62,1.22c0.03,0.84-0.53,1.31-1.6,1.35
		c-0.45,0.02-0.91,0.03-1.36,0.05c-1.28-0.02-2.56-0.04-3.83-0.05c-0.71-0.01-1.32-0.2-1.49-0.99
		C602.08,177.05,602.4,176.53,603.11,176.25z"/>
	<path class="st29" d="M569.54,164.46c0.01,0.73-0.56,1.33-1.27,1.33c-0.63,0-1.26-0.62-1.28-1.26c-0.03-0.68,0.58-1.29,1.3-1.29
		C569.01,163.24,569.52,163.74,569.54,164.46z"/>
	<path class="st29" d="M585.09,164.49c0,0.68-0.67,1.32-1.33,1.3c-0.69-0.03-1.22-0.59-1.22-1.29c-0.01-0.75,0.53-1.27,1.3-1.26
		C584.52,163.25,585.1,163.83,585.09,164.49z"/>
	<path class="st29" d="M573.4,163.24c0.77-0.02,1.29,0.48,1.29,1.25c0,0.7-0.53,1.26-1.21,1.28c-0.69,0.02-1.32-0.59-1.33-1.29
		C572.16,163.81,572.71,163.25,573.4,163.24z"/>
	<path class="st29" d="M578.68,163.24c0.69,0.02,1.24,0.57,1.24,1.25c-0.01,0.69-0.64,1.31-1.33,1.28c-0.68-0.02-1.21-0.59-1.2-1.28
		C577.38,163.72,577.9,163.22,578.68,163.24z"/>
	<path class="st30" d="M574.34,200.96c1.31-1.62,2.26-3.47,3.42-5.19c0.75-1.11,1.43-2.26,2.16-3.38c0.17-0.26,0.36-0.51,0.41-0.83
		c1.56,0,3.12,0,4.68,0c0.04,0.29-0.16,0.45-0.27,0.63c-3.81,5.99-7.62,11.97-11.43,17.95c-0.32,0.51-1.83,0.9-2.35,0.62
		c-0.18-0.1-0.13-0.23-0.08-0.35C572.04,207.26,573.03,204.05,574.34,200.96z"/>
</g>
<g>
	<g>
		<polygon class="st31" points="636.35,553.28 651.57,545.94 712.64,534.75 711.86,560.72 708.61,574.55 700.49,589.21 
			692.57,597.68 681.46,602.54 671.2,602.54 664.52,601.41 656.59,596.06 650.57,589.3 645.91,582.37 642.15,574.25 		"/>
		<path d="M804,485.66c0,48.26,0,96.52,0,144.78c-1.26,3.48-3.44,4.67-8.64,4.67c-79.57,0-159.14,0-238.71,0
			c-5.21,0-7.39-1.19-8.64-4.67c0-48.26,0-96.52,0-144.78c1.09-3.04,4.02-4.74,8.63-4.99c1-0.05,2-0.04,3-0.04
			c23.41,0,46.81,0,70.22,0c1,0,2-0.02,3,0.03c5.98,0.3,9.43,2.69,9.87,6.85c0.09,0.86,0.05,1.73,0.05,2.6
			c0,20.89-0.2,41.78,0.08,62.66c0.15,11.75,2.76,23.24,10.87,33.8c2.7,3.52,5.61,6.95,9.85,9.74c2.02,1.33,4.42,2.05,7.1,2.34
			c3.55,0.38,7.12,0.36,10.69,0.01c5.16-0.5,8.39-2.88,11.2-5.6c8.45-8.21,13.17-17.44,15.13-27.37c1.02-5.14,1.58-10.32,1.57-15.52
			c-0.02-20.2-0.01-40.39-0.01-60.59c0-6.66,3.31-8.96,12.92-8.96c23.41,0,46.81,0,70.22,0c1,0,2-0.02,3,0.04
			C799.98,480.92,802.91,482.62,804,485.66z"/>
		<path class="st1" d="M659.1,602.33c8.15,3.59,17.01,3.63,26.02,2.35c5.91-0.84,10.28-3.42,13.8-6.71
			c6.61-6.17,11.58-12.92,14.55-20.33c0.6-1.48,1.64-1.86,3.64-1.89c13.97-0.21,26.97,2.1,38.49,7.59
			c9.61,4.58,19.89,7.89,31.35,9.4c0.59,0.38,0.75,0.88,0.77,1.4c0.09,1.94,0.1,3.88-0.01,5.83c-0.03,0.51-0.15,1.03-0.79,1.39
			c-7-2.44-14.47-0.84-21.72-1.16c-1.48-0.07-2.42,0.7-2.77,1.7c-0.38,1.09,0.24,1.91,1.57,2.5c0.64,0.29,1.35,0.48,2.1,0.51
			c5.41,0.16,10.81,0.11,16.22,0.03c1.76-0.03,2.83-1.21,4.58-1.21c0.87,0.51,0.84,1.23,0.85,1.92c0.05,3.81,0.04,7.61,0,11.42
			c-0.01,0.69,0.02,1.4-0.79,1.94c-6.74-2.3-13.94-0.88-20.92-1.16c-2.31-0.09-3.61,0.87-3.73,2.2c-0.13,1.38,1.14,2.44,3.56,2.53
			c5.55,0.2,11.11,0.11,16.67,0.05c1.69-0.02,2.63-1.21,4.28-1.25c0.55,0.24,0.81,0.62,0.8,1.02c-0.08,2.2,0.93,4.46-0.68,6.58
			c-0.91,0.02-1.83,0.06-2.74,0.06c-74.92,0-149.83-0.01-224.75,0.04c-2.36,0-3.02-0.34-3.01-2.04c0.11-16.39,0.1-32.79,0.01-49.18
			c-0.01-1.53,0.48-1.97,2.73-1.82c11.25,0.76,21.66,3.18,30.89,7.7c12.3,6.02,25.8,9.49,40.9,9.78c3.32,0.06,6.66-0.04,9.99-0.07
			c1.62,0.51,2.32,1.61,3.31,2.52c3.2,2.95,7.1,5.14,12.56,5.67C657.72,601.71,658.31,602.16,659.1,602.33z"/>
		<path class="st32" d="M624.99,528.22c-8.93-1.03-17.01-3.52-24.34-7.11c-11.63-5.69-24.48-8.89-38.67-9.54
			c-0.16-0.04-0.31-0.09-0.48-0.1c-1.48-0.12-3.4,0.44-4.34-0.24c-1.12-0.81-0.38-2.2-0.39-3.33c-0.05-6.34,0.02-12.69-0.06-19.03
			c-0.02-1.25,0.37-1.68,2.32-1.68c21.32,0.05,42.63,0.05,63.95,0c1.96,0,2.8,0.48,2.78,1.76c-0.03,1.89,0.39,3.8-0.33,5.67
			c-1.25,1.1-1.8-0.09-2.52-0.42c-2.47-1.14-5.38-0.4-5.71,1.51c-0.16,0.93,0.24,1.73,1.4,2.25c1.32,0.59,2.64,0.48,3.99-0.05
			c0.82-0.33,1.36-1.34,2.7-0.62c0.31,0.36,0.44,0.75,0.44,1.15c0.1,4.28,0.09,8.56,0.01,12.84c-0.01,0.4-0.13,0.79-0.4,1.15
			c-1.43,0.84-1.98-0.33-2.87-0.64c-1.48-0.51-2.87-0.58-4.17,0.18c-1.24,0.72-1.34,1.7-0.92,2.69c0.46,1.1,1.79,1.46,3.28,1.52
			c1.06,0.04,1.86-0.4,2.64-0.84c0.57-0.32,1.05-1.04,2.03-0.36c0.63,0.86,0.48,1.8,0.48,2.71c0.02,2.75,0.03,5.5,0,8.26
			C625.77,526.74,625.88,527.57,624.99,528.22z"/>
		<path class="st32" d="M786.99,528.22c-8.66-1.03-16.54-3.4-23.68-6.88c-9.68-4.7-20.18-7.94-31.9-9.19
			c-2.29-0.25-4.61-0.38-6.92-0.56c-1.31-0.27-2.65-0.13-3.97-0.11c-1.22,0.01-1.79-0.19-1.79-1.15c0.05-7.33,0.06-14.65-0.01-21.98
			c-0.01-1.34,1.17-1.13,2.31-1.13c16.24,0,32.48,0,48.72,0c5.16,0,10.33,0.03,15.49-0.02c1.55-0.02,2.43,0.33,2.47,1.41
			c0.08,1.89,0.42,3.8-0.28,5.67c-0.77,0.88-1.55,0.25-2.27-0.03c-1.26-0.5-2.52-0.89-3.98-0.4c-1.72,0.58-2.46,2.04-1.64,3.22
			c0.84,1.21,2.8,1.59,4.92,1.04c0.9-0.23,1.58-1.19,2.82-0.48c0.44,0.52,0.48,1.09,0.48,1.67c0.03,3.72,0.03,7.44,0,11.16
			c0,0.57-0.05,1.15-0.46,1.66c-1.22,0.86-1.9-0.14-2.76-0.41c-2.04-0.65-4.32-0.17-5.09,1.13c-0.74,1.26,0.28,2.74,2.2,3.22
			c1.22,0.3,2.26,0.04,3.3-0.4c0.69-0.29,1.31-1.05,2.34-0.34c0.69,0.98,0.47,2.03,0.48,3.05c0.03,2.52,0.03,5.05,0,7.57
			C787.77,526.74,787.88,527.57,786.99,528.22z"/>
		<path class="st33" d="M725.6,569.89c-2.49,0-4.99-0.03-7.48,0.01c-1.29,0.02-1.82-0.25-1.66-1.19c0.14-0.82,0.41-1.56,1.13-2.24
			c13.51-12.8,27.02-25.61,40.47-38.44c1.08-1.03,1.89-1.32,3.55-0.53c2.05,0.97,4.26,1.83,6.54,2.51c2.06,0.61,1.79,1.18,0.67,2.24
			c-10.66,10.03-21.26,20.1-31.88,30.15c-2.16,2.05-4.34,4.09-6.49,6.14C728.7,570.22,728.71,570.23,725.6,569.89z"/>
		<path class="st33" d="M560.22,570.04c6.16-5.84,12.03-11.42,17.93-17c7.96-7.54,15.97-15.05,23.86-22.63
			c1.16-1.11,2-1.15,3.61-0.54c2.25,0.85,4.63,1.6,7.06,2.16c1.97,0.45,1.73,0.93,0.73,1.87c-10.25,9.66-20.46,19.35-30.68,29.03
			c-2.8,2.65-5.63,5.29-8.38,7.97c-0.6,0.58-1.14,0.89-2.24,0.66C568.37,570.8,564.49,570.51,560.22,570.04z"/>
		<path class="st33" d="M787.02,539.02c-6.34,6.06-12.68,12.13-19.04,18.19c-5.63,5.36-11.31,10.69-16.91,16.07
			c-0.87,0.83-1.54,1.13-3.01,0.62c-3.11-1.08-6.48-1.73-10.05-2.48c4.08-3.88,8.03-7.64,11.99-11.41
			c8.88-8.43,17.79-16.83,26.61-25.29c1.34-1.28,2.56-1.89,4.88-1.23c1.74,0.5,3.67,0.68,5.52,1
			C788.37,536,787.76,537.51,787.02,539.02z"/>
		<path class="st33" d="M625.01,546.98c-5.84,5.6-11.68,11.2-17.54,16.79c-4.54,4.33-9.16,8.63-13.67,12.99
			c-0.91,0.88-1.58,1.02-2.96,0.43c-2.33-1-4.79-1.85-7.24-2.69c-1.25-0.43-1.83-0.67-0.74-1.7c13.29-12.53,26.5-25.11,39.73-37.68
			c0.63-0.59,1.2-1.16,2.39-0.6c0.62,0.44,0.77,1,0.78,1.58c0.07,2.97,0.07,5.93,0,8.9C625.75,545.69,625.35,546.33,625.01,546.98z"
			/>
		<path class="st33" d="M556.51,563.17c0-4.49,0.03-8.7-0.03-12.9c-0.01-0.83,0.48-1.43,1.12-2.04
			c8.84-8.38,17.71-16.74,26.47-25.15c1.09-1.05,1.92-1.17,3.41-0.51c2.31,1.03,4.69,1.97,7.09,2.9c1.08,0.41,1.41,0.71,0.54,1.53
			c-12.62,11.89-25.18,23.8-37.76,35.71C557.23,562.83,557.01,562.9,556.51,563.17z"/>
		<path class="st33" d="M718.59,555.52c0-4.9,0.01-9.31-0.01-13.73c0-0.7,0.67-1.17,1.19-1.67c6.71-6.38,13.46-12.73,20.14-19.13
			c0.88-0.84,1.61-1.14,3.04-0.61c2.57,0.94,5.22,1.78,7.85,2.64c1.02,0.33,1.37,0.65,0.57,1.41
			C740.56,534.65,729.79,544.89,718.59,555.52z"/>
		<path class="st34" d="M786.99,528.22c0-3.83,0.02-7.66,0-11.49c0-0.55,0.26-1.16-0.44-1.62c-0.59-0.92-0.56-1.85-0.05-2.78
			c0.54-0.28,0.49-0.69,0.49-1.09c0-4.23,0-8.47,0-12.7c0-0.4,0.05-0.81-0.48-1.1c-0.52-0.93-0.56-1.85,0.02-2.78
			c0.99-2.19,0.27-4.43,0.39-6.64c0.02-0.41-0.47-0.58-1.02-0.59c-0.58-0.02-1.16-0.02-1.75-0.02c-20.79,0-41.58,0.02-62.37-0.03
			c-2.12-0.01-2.87,0.3-2.84,1.89c0.13,6.68,0.13,13.36,0,20.05c-0.03,1.59,0.59,2.21,2.91,2.01c0.85-0.07,1.84-0.22,2.62,0.28
			c-5.93,0.16-5.93,0.16-5.93-3.96c0-6.23,0.05-12.46-0.04-18.69c-0.02-1.36,0.35-1.9,2.55-1.89c23.99,0.06,47.98,0.06,71.96,0.02
			c1.99,0,2.51,0.38,2.5,1.74c-0.07,12.81-0.08,25.62,0,38.43c0.01,1.48-0.61,1.99-2.67,1.71
			C790.91,528.69,788.95,528.46,786.99,528.22z"/>
		<path class="st35" d="M624.6,495c0.87-2.26,0.24-4.57,0.35-6.85c0.04-0.86-1.04-0.74-1.85-0.74c-2.75-0.01-5.5,0-8.25,0
			c-18.33,0-36.66,0.03-54.99-0.04c-2.3-0.01-2.95,0.42-2.92,2.02c0.13,6.64,0.13,13.27,0,19.91c-0.03,1.58,0.59,2.24,2.91,2.01
			c0.7-0.07,1.51-0.15,2.13,0.27c-5.5,0.16-5.5,0.16-5.5-3.54c0-6.4,0.04-12.8-0.04-19.2c-0.02-1.29,0.35-1.79,2.43-1.79
			c23.98,0.06,47.95,0.06,71.93,0.02c2.11,0,2.66,0.46,2.65,1.87c-0.07,12.8-0.08,25.61,0.01,38.41c0.01,1.47-0.75,1.81-2.61,1.6
			c-1.97-0.22-3.97-0.29-5.87-0.73c0-3.94,0.01-7.88,0-11.82c0-0.55,0.24-1.15-0.38-1.64c-0.64-0.7-0.75-1.39-0.03-2.1
			c0.48-0.32,0.42-0.73,0.42-1.13c0-4.44,0-8.87,0-13.31c0-0.4,0.07-0.81-0.41-1.13C623.85,496.4,623.96,495.7,624.6,495z"/>
		<path class="st33" d="M787.02,563.27c-6.13,5.87-12.27,11.74-18.37,17.62c-0.66,0.64-1.23,0.57-2.05,0.21
			c-2.54-1.09-5.07-2.2-7.68-3.21c-1.33-0.52-1.21-0.94-0.4-1.7c9.36-8.8,18.67-17.62,28-26.44c1.04,0.04,1.13,0.64,1.15,1.11
			c0.19,3.7,0.28,7.41-0.05,11.11C787.59,562.42,787.37,562.87,787.02,563.27z"/>
		<path class="st36" d="M786.59,618.98c0.65-0.49,0.38-1.1,0.38-1.65c0.02-3.98,0.02-7.95,0-11.93c0-0.55,0.3-1.17-0.46-1.62
			c-0.59-0.83-0.4-1.65,0.1-2.46c0.84-2.84,0.17-5.71,0.34-8.57c2.14,0.19,4.27,0.49,6.42,0.53c1.79,0.03,2.16,0.5,2.14,1.65
			c-0.07,7.09-0.04,14.17-0.04,21.26c0,3.8-0.05,7.61,0.03,11.41c0.03,1.11-0.41,1.55-2.08,1.47c-2.15-0.11-4.32-0.06-6.48-0.08
			c-0.21-2.51,0.59-5.04-0.41-7.53C785.89,620.62,786.15,619.8,786.59,618.98z"/>
		<path class="st33" d="M626.99,569.46c-5.02,4.8-10.06,9.59-15.05,14.41c-0.77,0.74-1.51,0.9-2.69,0.47
			c-2.35-0.86-4.72-1.7-7.14-2.44c-1.9-0.58-2.12-1.13-0.8-2.35c7.6-7.06,15.07-14.19,22.59-21.29c0.34-0.32,0.7-0.63,1.05-0.94
			c1.42,0.15,1.23,0.97,1.26,1.6c0.14,2.7,0.7,5.37,1.23,8.04C627.61,567.84,627.57,568.67,626.99,569.46z"/>
		<path class="st33" d="M556.51,538.88c0-3.61,0-7.04,0-10.47c0-3.17,0.04-6.34-0.03-9.51c-0.02-0.99,0.27-1.44,1.9-1.43
			c5.77,0.03,11.4,0.64,16.97,1.68c1.43,0.27,1.82,0.55,0.84,1.47c-6.31,5.94-12.57,11.9-18.86,17.85
			C557.21,538.58,556.98,538.65,556.51,538.88z"/>
		<path class="st37" d="M786.53,574c2.81-2.7,5.61-5.41,8.42-8.1c0.89,0.28,0.52,0.74,0.53,1.08c0.03,6.28-0.04,12.56,0.07,18.85
			c0.03,1.44-0.66,1.89-2.57,1.56c-2.32-0.39-4.78-0.26-7.04-0.89c0.58-2.79,0.24-5.6,0.31-8.4
			C786.26,576.72,786.2,575.35,786.53,574z"/>
		<path class="st37" d="M787.02,563.27c-0.01-3.91,0-7.82-0.04-11.72c-0.01-0.6,0.34-1.28-0.46-1.79c2.81-2.7,5.62-5.41,8.61-8.29
			c0.57,0.88,0.34,1.61,0.34,2.3c0.03,3.46,0.01,6.92,0.01,10.38c0,0.63,0.03,1.24-0.59,1.8
			C792.24,558.37,789.64,560.82,787.02,563.27z"/>
		<path class="st37" d="M629.61,577.15c2.03-1.94,4.06-3.88,6.36-6.08c0.71,1.93,1.26,3.53,1.88,5.11c1.3,3.34,2.96,6.6,5.07,9.73
			c0.81,1.2,0.26,1.56-1.43,1.56c-1.83,0-3.66,0.02-5.49,0.02c-0.74-0.29-1.23-0.73-1.61-1.25
			C632.31,583.33,630.44,580.37,629.61,577.15z"/>
		<path class="st37" d="M626.99,569.46c-0.42-2.55-0.66-5.11-1.32-7.63c-0.4-1.51,0.56-3.1-0.72-4.52c2.68-2.58,5.37-5.15,8.05-7.73
			c0.42,3.38,0.36,6.65,1.08,9.85c0.56,2.46-0.59,4.29-2.74,6.07C629.8,566.77,628.43,568.14,626.99,569.46z"/>
		<path class="st38" d="M732.19,518.33c-4.52,4.28-8.83,8.37-13.6,12.89c0-4.61,0.01-8.67-0.01-12.72c0-0.75,0.44-0.99,1.49-1
			C724.03,517.47,727.95,517.75,732.19,518.33z"/>
		<path class="st33" d="M629.61,577.15c1.64,1.81,1.94,3.98,3.32,5.86c1.08,1.48,2.05,2.99,3.07,4.48
			c-4.75,0.19-9.45-0.04-14.15-0.6c-1.84-0.22-2.15-0.49-0.99-1.54C623.82,582.64,626.7,579.88,629.61,577.15z"/>
		<path class="st38" d="M786.53,574c0.68,0.4,0.46,0.95,0.46,1.44c0.02,3.19,0.01,6.39,0,9.58c0,0.6,0.24,1.32-1.07,1.47
			c-3.53-0.41-6.9-1.15-10.32-2.26C779.32,580.75,782.92,577.37,786.53,574z"/>
		<path class="st37" d="M625.01,546.98c-0.01-4.15-0.01-8.3-0.02-12.45c2.31,0.12,4.62,0.24,6.93,0.36
			c0.71,0.04,1.46,0.16,1.44,0.73c-0.06,1.46,0.71,2.98-0.76,4.33C630.05,542.28,627.53,544.63,625.01,546.98z"/>
		<path class="st36" d="M659.1,602.33c-8.69-0.37-13.9-4.14-18.12-8.89c5.19-1.24,8.62-0.09,11.01,3.38
			C653.52,599.05,656.41,600.68,659.1,602.33z"/>
		<path class="st39" d="M787.02,539.02c0-1.51-0.01-3.02-0.01-4.53c1.39-0.02,2.77,0.03,4.23,0.48
			C790.08,536.46,788.54,537.73,787.02,539.02z"/>
		<path d="M752.59,614.22c-2.66,0-5.32,0.03-7.97-0.01c-2.81-0.04-4.58-1.17-4.61-2.88c-0.03-1.67,1.8-2.97,4.5-3
			c5.48-0.05,10.96-0.05,16.44,0c2.76,0.02,4.55,1.24,4.58,2.93c0.02,1.8-1.72,2.92-4.72,2.95
			C758.08,614.24,755.34,614.22,752.59,614.22z"/>
		<path d="M727.35,617.24c2.74,0,5.48-0.04,8.22,0.01c2.62,0.04,4.35,1.21,4.41,2.85c0.05,1.6-1.7,2.98-4.22,3.01
			c-5.73,0.07-11.46,0.08-17.19,0c-2.53-0.04-4.19-1.4-4.11-3.05c0.08-1.67,1.75-2.77,4.42-2.81
			C721.71,617.2,724.53,617.24,727.35,617.24z"/>
		<path d="M629.15,617.24c2.74,0,5.48-0.03,8.22,0.01c2.57,0.04,4.41,1.22,4.51,2.8c0.1,1.64-1.77,3.04-4.41,3.07
			c-5.56,0.06-11.13,0.06-16.69,0c-2.77-0.03-4.46-1.26-4.43-3.01c0.03-1.73,1.75-2.83,4.58-2.87
			C623.67,617.21,626.41,617.24,629.15,617.24z"/>
		<path d="M654.49,614.21c-2.74,0-5.48,0.04-8.22-0.01c-2.67-0.05-4.3-1.17-4.34-2.86c-0.03-1.65,1.62-2.96,4.19-3
			c5.64-0.08,11.29-0.07,16.94-0.01c2.64,0.03,4.5,1.43,4.39,3.07c-0.11,1.63-1.85,2.75-4.49,2.79
			C660.14,614.25,657.32,614.22,654.49,614.21z"/>
		<path d="M577.93,617.24c2.74,0,5.48-0.03,8.22,0.01c2.72,0.04,4.34,1.1,4.43,2.8c0.09,1.74-1.6,3.04-4.33,3.07
			c-5.56,0.06-11.13,0.06-16.69,0.01c-2.67-0.03-4.55-1.36-4.5-3.01c0.04-1.67,1.9-2.81,4.65-2.88c0.17,0,0.33,0,0.5,0
			C572.78,617.24,575.36,617.24,577.93,617.24z"/>
		<path d="M786.59,618.98c0.48,0.83,0.26,1.64-0.05,2.46c-1.1,1.26-2.74,1.72-4.83,1.71c-5.07-0.04-10.15,0-15.23-0.02
			c-3.21-0.01-5.05-1.1-5.08-2.93c-0.03-1.86,1.75-2.95,4.97-2.96c5.16-0.02,10.32,0.03,15.48-0.02
			C783.97,617.2,785.58,617.66,786.59,618.98z"/>
		<path d="M727.16,599.51c2.74,0,5.48-0.03,8.22,0.01c2.83,0.04,4.58,1.18,4.6,2.88c0.02,1.67-1.77,2.96-4.52,2.99
			c-5.48,0.07-10.96,0.07-16.44,0c-2.91-0.03-4.67-1.33-4.56-3.11c0.1-1.71,1.8-2.73,4.73-2.77
			C721.85,599.48,724.51,599.51,727.16,599.51z"/>
		<path d="M603.42,614.21c-2.74,0-5.48,0.03-8.22-0.01c-2.7-0.04-4.57-1.29-4.55-2.94c0.02-1.58,1.81-2.89,4.38-2.92
			c5.64-0.07,11.29-0.07,16.94,0c2.58,0.03,4.28,1.34,4.26,2.97c-0.02,1.65-1.73,2.84-4.33,2.89
			C609.07,614.25,606.24,614.21,603.42,614.21z"/>
		<path d="M629.12,599.51c2.74,0,5.48-0.03,8.22,0.01c2.66,0.05,4.41,1.16,4.54,2.77c0.13,1.64-1.69,3.05-4.38,3.09
			c-5.56,0.08-11.12,0.08-16.68,0.01c-2.82-0.04-4.48-1.26-4.46-2.99c0.02-1.74,1.7-2.84,4.56-2.88
			C623.64,599.48,626.38,599.51,629.12,599.51z"/>
		<path d="M701.48,614.21c-2.74,0-5.48,0.04-8.22-0.01c-2.67-0.05-4.32-1.16-4.37-2.83c-0.06-1.67,1.56-2.98,4.14-3.02
			c5.73-0.08,11.46-0.08,17.18,0c2.52,0.04,4.28,1.44,4.2,3.03c-0.08,1.6-1.87,2.78-4.46,2.82
			C707.12,614.25,704.3,614.21,701.48,614.21z"/>
		<path d="M676.02,617.24c2.74,0,5.48-0.03,8.22,0.01c2.62,0.04,4.42,1.16,4.54,2.76c0.13,1.68-1.67,3.07-4.34,3.1
			c-5.64,0.07-11.29,0.07-16.93,0c-2.56-0.03-4.3-1.34-4.3-2.96c0-1.66,1.86-2.87,4.59-2.9
			C670.54,617.21,673.28,617.24,676.02,617.24z"/>
		<path d="M786.62,601.32c0.49,0.83,0.19,1.64-0.1,2.46c-1.02,1.12-2.51,1.64-4.39,1.64c-5.32,0-10.65,0.05-15.97-0.02
			c-3.64-0.04-5.76-2.11-4.41-4.17c0.76-1.16,2.13-1.72,3.98-1.72c5.57,0,11.15,0,16.72,0C784.39,599.51,785.78,600.1,786.62,601.32
			z"/>
		<path d="M577.96,599.52c2.74,0,5.48-0.04,8.22,0.01c2.71,0.05,4.34,1.13,4.41,2.81c0.07,1.66-1.51,2.99-4.12,3.04
			c-5.72,0.1-11.45,0.09-17.18,0c-2.55-0.04-4.28-1.43-4.22-3.01c0.06-1.62,1.8-2.78,4.43-2.83
			C572.31,599.48,575.14,599.52,577.96,599.52z"/>
		<path class="st40" d="M586.43,504.89c0,1.56-2.06,2.95-4.36,2.94c-2.4-0.01-4.18-1.31-4.12-3.02c0.06-1.62,1.82-2.84,4.12-2.85
			C584.36,501.94,586.43,503.33,586.43,504.89z"/>
		<path class="st41" d="M611.98,504.98c-0.07,1.61-2.08,2.9-4.43,2.85c-2.2-0.05-4.07-1.39-4.05-2.92c0.02-1.62,1.97-2.97,4.28-2.96
			C610.05,501.97,612.05,503.41,611.98,504.98z"/>
		<path class="st40" d="M573.53,496.19c-0.12,1.68-2,2.81-4.5,2.71c-2.32-0.1-4.05-1.38-3.97-2.95c0.08-1.57,2.17-2.92,4.44-2.87
			C571.79,493.12,573.64,494.56,573.53,496.19z"/>
		<path class="st40" d="M599.09,496.04c-0.01,1.72-1.77,2.89-4.26,2.86c-2.26-0.03-4.15-1.3-4.2-2.82
			c-0.05-1.54,1.99-2.98,4.26-3.02C597.15,493.04,599.1,494.42,599.09,496.04z"/>
		<path class="st40" d="M624.58,512.67c0.01,0.7,0.02,1.4,0.03,2.1c-1.72,1.81-3.25,2.3-5.49,1.73c-2.23-0.56-2.95-1.74-2.67-3.27
			c0.23-1.21,1.31-1.98,2.97-2.26C621.75,510.56,623.41,511.3,624.58,512.67z"/>
		<path class="st41" d="M624.6,495c-0.01,0.7-0.01,1.4-0.02,2.1c-1.15,1.38-2.8,2.11-5.14,1.72c-1.66-0.27-2.73-1.04-3-2.24
			c-0.34-1.55,0.52-2.7,2.64-3.29C621.19,492.71,622.94,493.28,624.6,495z"/>
		<path class="st40" d="M774.05,504.92c-0.02,1.7-1.87,2.96-4.28,2.91c-2.21-0.04-4.15-1.37-4.2-2.87c-0.06-1.55,1.97-2.98,4.27-3
			C772.24,501.93,774.07,503.22,774.05,504.92z"/>
		<path class="st40" d="M786.5,512.33c0.48,0.92,0.5,1.85,0.05,2.78c-1.21,1.13-2.65,1.88-4.84,1.49c-1.79-0.32-2.89-1.12-3.18-2.36
			c-0.32-1.39,0.43-2.53,2.33-3.1C783.15,510.46,785.04,510.98,786.5,512.33z"/>
		<path class="st41" d="M786.54,494.66c0.46,0.93,0.45,1.85-0.02,2.78c-1.43,1.4-3.39,1.85-5.64,1.22c-1.77-0.5-2.58-1.58-2.38-2.92
			c0.18-1.26,1.18-2.12,2.93-2.49C783.64,492.78,785.25,493.46,786.54,494.66z"/>
		<path class="st40" d="M761.36,495.98c0,1.66-1.83,2.92-4.27,2.93c-2.48,0.01-4.21-1.2-4.17-2.92c0.03-1.56,1.86-2.87,4.05-2.91
			C759.2,493.03,761.35,494.45,761.36,495.98z"/>
		<path class="st41" d="M744.16,507.83c-2.32-0.04-4.23-1.45-4.14-3.05c0.09-1.51,2.06-2.82,4.23-2.83
			c2.31-0.01,4.28,1.37,4.25,2.97C748.47,506.53,746.47,507.87,744.16,507.83z"/>
		<path class="st40" d="M735.61,495.96c0.04,1.72-1.66,2.94-4.14,2.94c-2.24,0-4.17-1.23-4.28-2.74c-0.11-1.56,1.82-3.01,4.11-3.09
			C733.56,492.99,735.58,494.35,735.61,495.96z"/>
		<g>
			<g>
				<path d="M683.56,589h-14.12c-4.66,0-8.44-3.78-8.44-8.44V425.44c0-4.66,3.78-8.44,8.44-8.44h14.12c4.66,0,8.44,3.78,8.44,8.44
					v155.12C692,585.22,688.22,589,683.56,589z"/>
				<path class="st1" d="M679.25,586h-5.51c-4.66,0-8.44-3.78-8.44-8.44V428.44c0-4.66,3.78-8.44,8.44-8.44h5.51
					c4.66,0,8.44,3.78,8.44,8.44v149.12C687.69,582.22,683.92,586,679.25,586z"/>
				<path class="st42" d="M680.43,586L680.43,586c-4.01,0-7.27-3.25-7.27-7.27V427.27c0-4.01,3.25-7.27,7.27-7.27h0
					c4.01,0,7.27,3.25,7.27,7.27v151.46C687.69,582.75,684.44,586,680.43,586z"/>
			</g>
			<rect x="653" y="417" width="46" height="13"/>
		</g>
	</g>
</g>
<g>
	<path class="st14" d="M1061.91,279.61c1.92,0.27,2.58,1.45,2.56,3.28c-0.04,4.82,0.02,9.63-0.04,14.45
		c-0.02,1.18,0.3,1.51,1.52,1.66c12.25,1.5,20.73,9.54,22.72,21.49c0.25,1.53,0.24,3.12,0.24,4.68c0.02,17.83,0.04,35.66-0.04,53.49
		c-0.01,1.78,0.53,2.3,2.17,2.07c0.61-0.09,1.25-0.04,1.88,0c1.71,0.11,2.66,1.05,2.69,2.75c0.05,2.94,0.06,5.88-0.01,8.82
		c-0.04,1.7-1.06,2.59-2.77,2.68c-0.44,0.02-0.88,0.01-1.32,0.01c-56.67,0-113.33,0-170,0c-3.59,0-4.2-0.62-4.2-4.27
		c0-2.25-0.02-4.5,0-6.76c0.02-2.27,0.94-3.19,3.17-3.24c3.54-0.08,3.54-0.08,3.54-3.64c0-5.19,0.04-10.39-0.02-15.58
		c-0.02-1.94,0.74-3.1,2.71-3.37c1.66-0.07,2.62,0.66,3.03,2.31c0.2,0.8,0.16,1.61,0.16,2.43c0,4.88,0,9.75,0,14.63
		c0,0.56-0.02,1.13,0.09,1.68c0.13,0.67,0.57,0.93,1.21,0.92c0.62,0,1.11-0.2,1.25-0.88c0.16-0.74,0.11-1.49,0.11-2.24
		c0-17.56,0-35.13,0-52.69c0-8.2,5.16-14.67,13.13-16.52c0.49-0.11,0.99-0.19,1.44-0.41c0.74-0.37,0.87-1.02,0.73-1.75
		c-0.18-0.9-0.88-0.74-1.49-0.64c-4.41,0.71-8.23,2.63-11.27,5.89c-3.57,3.83-5.31,8.39-5.21,13.66c0.05,2.62,0.13,5.25-0.05,7.87
		c-0.16,2.38-1.13,3.31-3.12,3.27c-1.99-0.38-2.81-1.56-2.71-3.59c0.21-4.55-0.44-9.14,0.63-13.65
		c2.53-10.65,10.89-17.99,22.22-19.37c1.45-0.18,1.66-0.65,1.65-1.92c-0.04-12.51-0.04-25.02,0-37.53c0-1.22-0.17-1.75-1.58-1.73
		c-2.05,0.03-2.92-0.99-2.95-3.04c-0.03-2.69-0.03-5.38,0-8.07c0.02-2.21,0.86-3.14,3.04-3.07c1.34,0.04,1.73-0.37,2.02-1.69
		c1.99-9.14,10.18-15.82,19.56-15.91c9.65-0.1,19.3-0.07,28.96,0.01c1.52,0.01,1.92-0.43,1.8-1.85c-0.12-1.37-0.05-2.75-0.02-4.13
		c0.04-2.11,0.99-3.04,3.14-3.07c2.63-0.03,5.26-0.02,7.9,0c2.34,0.02,3.23,0.94,3.25,3.34c0.01,1.31,0.1,2.64-0.02,3.94
		c-0.12,1.35,0.23,1.78,1.69,1.77c9.15-0.08,18.3-0.04,27.45-0.04c11.07,0,18.55,5.8,21.27,16.58c0.27,1.07,0.86,1,1.63,1.02
		c2.6,0.07,3.32,0.8,3.34,3.38c0.01,2.56,0.02,5.13,0,7.69c-0.02,2.18-0.87,3.17-3.04,3.14c-1.36-0.02-1.51,0.52-1.48,1.64
		c0.06,2.69-0.02,5.38,0.03,8.07c0.04,1.84-0.65,3.01-2.55,3.29c-1.87,0.18-3.02-0.78-3.29-2.89c-0.24-1.93-0.07-3.87-0.11-5.81
		c-0.01-0.75,0.01-1.5-0.05-2.25c-0.06-0.82-0.47-1.24-1.3-1.29c-0.56-0.04-1.13-0.05-1.69-0.05c-10.21,0-20.43,0-30.64,0
		c-3.01,0-3.1,0.08-3.1,3c0,38.59,0,77.18,0,115.77c0,2.66,0.11,2.77,2.73,2.78c10.4,0.01,20.8,0.01,31.21,0
		c2.72,0,2.84-0.12,2.84-2.88c0.01-30.65,0-61.29,0.01-91.94c0-1.12-0.08-2.26,0.2-3.36
		C1059.19,280.13,1060.22,279.4,1061.91,279.61z"/>
	<path class="st43" d="M1061.91,279.61c-2.14,0.48-2.72,1.21-2.72,3.54c-0.01,8.01,0,16.01,0,24.02c0,23.77-0.02,47.53,0.04,71.3
		c0,1.73-0.29,2.31-2.19,2.29c-11.34-0.1-22.68-0.07-34.03-0.02c-1.37,0.01-1.91-0.19-1.91-1.78c0.05-39.78,0.05-79.56,0.01-119.33
		c0-1.39,0.32-1.77,1.75-1.77c11.53,0.06,23.06,0.06,34.59,0c1.39-0.01,1.84,0.32,1.78,1.75c-0.12,2.62-0.02,5.25-0.04,7.88
		c-0.02,1.89,0.74,3.12,2.74,3.35C1061.74,273.76,1061.75,276.68,1061.91,279.61z"/>
	<path class="st44" d="M926.72,335.64c1.98-0.48,2.59-1.81,2.6-3.75c0.04-3.99-0.4-8.01,0.39-11.97c1.66-8.33,9.11-14.97,17.5-15.7
		c1.01-0.09,1.22,0.19,1.31,1.17c0.17,1.76-0.23,2.55-2.22,2.87c-7.88,1.26-13.22,7.87-13.24,16.21
		c-0.03,18.13-0.01,36.27-0.02,54.4c0,0.59,0.35,1.54-0.29,1.7c-1,0.26-2.14,0.24-3.16,0.03c-0.6-0.12-0.29-0.99-0.29-1.52
		c-0.02-5.82-0.04-11.63,0-17.45c0.01-1.87-0.64-3.15-2.59-3.52c0-1.71,0-3.43,0-5.14c3.49-2.88,1.92-6.72,1.87-10.24
		c-0.01-1.06-1.39-1.36-1.87-2.24C926.71,338.88,926.71,337.26,926.72,335.64z"/>
	<path class="st45" d="M926.71,340.5c1.89,0.43,2.66,1.64,2.59,3.54c-0.06,1.81-0.05,3.62,0,5.43c0.05,1.87-0.64,3.14-2.59,3.51
		c-1.94-0.27-2.77-1.4-2.7-3.34c0.07-1.86,0.09-3.73-0.01-5.59C923.9,342.05,924.7,340.84,926.71,340.5z"/>
	<path class="st43" d="M991.79,319.51c0,19.77-0.02,39.54,0.04,59.31c0,1.6-0.44,1.93-1.97,1.92c-11.41-0.07-22.82-0.06-34.22-0.01
		c-1.35,0.01-1.94-0.16-1.93-1.77c0.05-39.79,0.05-79.58,0.01-119.37c0-1.44,0.42-1.74,1.79-1.74c11.53,0.05,23.07,0.06,34.6-0.01
		c1.47-0.01,1.72,0.44,1.72,1.79C991.78,279.6,991.79,299.56,991.79,319.51z"/>
	<path class="st43" d="M971.96,245.56c-0.49-1.46-1.55-1.97-3.04-1.95c-4.45,0.04-8.9-0.04-13.34,0.04
		c-1.43,0.02-1.52-0.41-1.14-1.63c1.97-6.4,7.86-10.73,14.91-10.73c20.42-0.02,40.85-0.01,61.27-0.01c4.51,0,9.02-0.04,13.53,0.02
		c6.41,0.08,12.07,4.19,14.17,10.18c0.74,2.1,0.71,2.14-1.52,2.14c-24.12,0-48.24,0.01-72.36-0.01c-1.61,0-3.03,0.16-3.61,1.96
		c-0.18,0.86-0.76,1.21-1.59,1.25c-1.91,0.08-3.82,0.09-5.73,0C972.7,246.77,972.07,246.48,971.96,245.56z"/>
	<path class="st16" d="M948.47,346.88c0,10.69-0.03,21.39,0.03,32.08c0.01,1.36-0.26,1.86-1.72,1.77c-2.31-0.14-4.64-0.11-6.95-0.01
		c-1.23,0.05-1.55-0.31-1.54-1.54c0.05-10.82,0.03-21.64,0.03-32.46c0-7.63-0.04-15.26,0.02-22.89c0.04-5.1,3.5-9.23,8.38-10.43
		c1.41-0.34,1.8-0.16,1.79,1.38C948.44,325.5,948.47,336.19,948.47,346.88z"/>
	<path class="st16" d="M1064.45,346.88c0-10.69,0.03-21.39-0.04-32.08c-0.01-1.57,0.41-1.71,1.8-1.37
		c4.86,1.19,8.35,5.32,8.37,10.43c0.05,18.51,0.02,37.02,0.05,55.53c0,1.07-0.31,1.37-1.36,1.34c-2.44-0.07-4.89-0.1-7.33,0.01
		c-1.3,0.06-1.52-0.42-1.52-1.59C1064.47,368.39,1064.45,357.63,1064.45,346.88z"/>
	<path class="st46" d="M1006.5,389.71c-27.2,0-54.4,0-81.59,0c-2.35,0-2.82-0.64-2.33-3.02c0.11-0.55,0.35-0.74,0.86-0.73
		c0.44,0.01,0.88,0,1.32,0c54.46,0,108.92,0,163.37,0c2.17,0,2.81,0.93,2.23,3.11c-0.12,0.45-0.33,0.63-0.76,0.63
		c-0.56,0-1.13,0.01-1.69,0.01C1060.77,389.71,1033.63,389.71,1006.5,389.71z"/>
	<path class="st46" d="M971.96,245.56c0.34,0.33,0.58,0.75,1.19,0.74c2.16-0.04,4.31-0.03,6.47,0c0.6,0.01,0.85-0.42,1.21-0.73
		c0.1,2.59,0.93,3.32,3.85,3.32c25.69,0,51.39,0.02,77.08-0.03c1.58,0,1.99,0.43,1.99,1.98c0,1.53-0.5,1.85-1.93,1.84
		c-36.91-0.04-73.83-0.04-110.74,0c-1.5,0-1.92-0.42-1.89-1.88c0.03-1.35,0.22-1.97,1.82-1.95c5.83,0.1,11.66,0.05,17.48,0.03
		C971.06,248.87,971.85,248.09,971.96,245.56z"/>
	<path class="st44" d="M1083.63,350.86c0,9.38-0.05,18.75,0.05,28.13c0.02,1.63-0.61,1.75-1.92,1.76c-1.32,0-1.94-0.15-1.93-1.77
		c0.07-17.94,0.05-35.88,0.04-53.82c0-9.38-4.96-15.39-14.21-17.13c-2.27-0.43-1.02-2.03-1.14-3.07c-0.16-1.36,1.03-0.72,1.62-0.64
		c10.22,1.39,17.37,9.41,17.48,19.73C1083.71,332.98,1083.63,341.92,1083.63,350.86z"/>
	<path class="st43" d="M1006.52,257.89c2.7,0,5.39,0.04,8.09-0.02c0.98-0.02,1.31,0.28,1.28,1.27c-0.07,2.19-0.06,4.38,0,6.57
		c0.02,0.92-0.33,1.17-1.21,1.17c-5.45-0.03-10.91-0.04-16.36,0.01c-1,0.01-1.3-0.32-1.27-1.29c0.06-2.19,0.06-4.38,0-6.57
		c-0.02-0.94,0.35-1.16,1.21-1.14C1001.01,257.92,1003.77,257.89,1006.52,257.89z"/>
	<path class="st43" d="M1006.45,281.1c-2.63,0-5.27-0.05-7.9,0.02c-1.1,0.03-1.58-0.22-1.52-1.44c0.1-2.12,0.06-4.25,0.01-6.38
		c-0.02-0.87,0.24-1.21,1.16-1.2c5.52,0.03,11.03,0.04,16.55,0c0.95-0.01,1.15,0.39,1.13,1.23c-0.04,2.19-0.06,4.38,0.01,6.57
		c0.04,1.07-0.45,1.23-1.35,1.22C1011.84,281.07,1009.15,281.1,1006.45,281.1z"/>
	<path class="st43" d="M1006.45,295.34c-2.63,0-5.27-0.04-7.9,0.02c-1.09,0.03-1.59-0.2-1.53-1.43c0.1-2.12,0.06-4.25,0.01-6.38
		c-0.02-0.87,0.23-1.21,1.15-1.21c5.51,0.03,11.03,0.03,16.54,0c0.94-0.01,1.15,0.38,1.14,1.22c-0.04,2.19-0.06,4.38,0.01,6.57
		c0.04,1.07-0.45,1.23-1.35,1.22C1011.84,295.31,1009.15,295.34,1006.45,295.34z"/>
	<path class="st43" d="M1006.64,314.74c2.57,0,5.14,0.07,7.71-0.03c1.28-0.05,1.6,0.41,1.54,1.61c-0.09,2-0.07,4-0.01,6
		c0.03,1-0.19,1.44-1.32,1.42c-5.39-0.05-10.78-0.05-16.17,0c-1.1,0.01-1.39-0.36-1.35-1.4c0.07-2.06,0.09-4.13-0.01-6.19
		c-0.06-1.22,0.42-1.47,1.52-1.44C1001.25,314.78,1003.94,314.74,1006.64,314.74z"/>
	<path class="st43" d="M1006.53,337.97c-2.69,0-5.38-0.03-8.06,0.02c-0.98,0.02-1.48-0.14-1.44-1.3c0.09-2.18,0.06-4.37,0.01-6.55
		c-0.02-0.9,0.31-1.18,1.19-1.17c5.5,0.03,11,0.02,16.5,0.01c0.75,0,1.16,0.16,1.14,1.03c-0.04,2.31-0.06,4.62,0.01,6.92
		c0.03,1.03-0.53,1.06-1.29,1.05C1011.91,337.95,1009.22,337.97,1006.53,337.97z"/>
	<path class="st43" d="M1006.27,352.21c-2.63,0-5.25-0.05-7.88,0.02c-1.09,0.03-1.39-0.34-1.35-1.38c0.07-2.12,0.06-4.24,0-6.36
		c-0.03-0.97,0.27-1.3,1.27-1.29c5.44,0.04,10.88,0.04,16.32,0c1.02-0.01,1.28,0.36,1.25,1.3c-0.05,2.12-0.07,4.25,0.01,6.36
		c0.04,1.07-0.3,1.39-1.37,1.37C1011.77,352.17,1009.02,352.21,1006.27,352.21z"/>
	<path class="st43" d="M1006.49,366.45c-2.75,0-5.5-0.03-8.25,0.02c-0.87,0.01-1.22-0.21-1.2-1.14c0.06-2.25,0.06-4.49,0-6.74
		c-0.02-0.95,0.4-1.13,1.23-1.12c5.44,0.03,10.88,0.03,16.32-0.01c0.97-0.01,1.32,0.26,1.29,1.26c-0.06,2.18-0.07,4.37,0,6.55
		c0.04,1.07-0.44,1.21-1.33,1.2C1011.87,366.42,1009.18,366.45,1006.49,366.45z"/>
	<path class="st43" d="M1006.37,380.7c-2.63,0-5.26-0.06-7.89,0.03c-1.19,0.04-1.49-0.35-1.44-1.48c0.09-2.12,0.06-4.25,0.01-6.37
		c-0.02-0.87,0.24-1.2,1.16-1.19c5.51,0.04,11.02,0.04,16.53,0c0.93-0.01,1.17,0.33,1.15,1.2c-0.05,2.19-0.06,4.38,0,6.56
		c0.03,0.97-0.25,1.3-1.26,1.28C1011.88,380.66,1009.12,380.7,1006.37,380.7z"/>
	<path class="st43" d="M1006.34,309.48c-2.63,0-5.27-0.04-7.9,0.02c-1.03,0.02-1.45-0.23-1.41-1.34c0.08-2.12,0.06-4.25,0.01-6.38
		c-0.02-0.88,0.26-1.2,1.17-1.2c5.52,0.03,11.03,0.03,16.55,0.01c0.77,0,1.13,0.21,1.12,1.06c-0.04,2.25-0.05,4.51,0.01,6.76
		c0.03,1-0.47,1.1-1.27,1.1C1011.86,309.46,1009.1,309.48,1006.34,309.48z"/>
	<path class="st46" d="M1008.3,224.33c0.49,1.97-0.9,1.57-2.06,1.72c-1.97,0.25-1.54-1.04-1.69-2.17c-0.24-1.82,0.9-1.53,2.04-1.65
		C1008.38,222.04,1008.53,222.98,1008.3,224.33z"/>
	<path class="st47" d="M1055.41,346.73c0,1.75,0.01,3.49,0,5.24c-0.01,1.64-0.89,2.57-2.46,2.77c-1.44,0.18-2.73-1.02-2.76-2.67
		c-0.07-3.49-0.09-6.99,0.02-10.48c0.05-1.55,1-2.59,2.66-2.55c1.63,0.04,2.5,1.02,2.54,2.64
		C1055.45,343.36,1055.41,345.04,1055.41,346.73z"/>
</g>
<path class="st48" d="M119.49,310v275.03c0,20.18,16.94,36.54,37.83,36.54h177.86c20.89,0,37.83-16.36,37.83-36.54v-8.9"/>
<path class="st48" d="M375.17,220.59l-0.22-99.5c-0.03-12.05,9.73-21.83,21.78-21.83h143.4c12.03,0,21.78,9.75,21.78,21.78v6.76"/>
<path class="st48" d="M647,169l176.94-0.91C846,146,824,168,845.72,146.27h143.4c12.03,0,21.78,9.75,21.78,21.78v6.76"/>
<path class="st48" d="M995,413v67.47c0,16.19-16.81,29.31-37.56,29.31H831.93"/>
<path class="st49" d="M676.49,417v-34.97c0-11.08,8.98-20.07,20.07-20.07H926"/>
<path class="st50" d="M676.49,417v-34.97c0-11.08,8.98-20.07,20.07-20.07H926"/>
<path class="st51" d="M681,417v-31.13c0-9.87,8.86-17.87,19.79-17.87H927"/>
<rect x="712.5" y="355.5" transform="matrix(-1.836970e-16 1 -1 -1.836970e-16 1097.5 -373.5)" width="46" height="13"/>
<g>
	<g>
		<g>
			<path class="st14" d="M377.29,341.52c-23.01,0-46.02-0.1-69.03,0.1c-3.74,0.03-4.79-0.9-4.76-5.16c0.2-27.21,0.2-54.43,0-81.64
				c-0.03-4.27,1.04-5.16,4.76-5.15c46.02,0.15,92.04,0.15,138.06,0c3.72-0.01,4.8,0.89,4.77,5.15c-0.2,27.21-0.2,54.43,0,81.64
				c0.03,4.28-1.05,5.18-4.77,5.15C423.31,341.42,400.3,341.52,377.29,341.52z"/>
			<path class="st378" d="M376.91,331.3c-20.55,0-41.1-0.08-61.64,0.08c-3.34,0.03-4.28-0.73-4.25-4.17
				c0.17-22.01,0.18-44.03,0-66.05c-0.03-3.45,0.93-4.17,4.25-4.16c41.1,0.12,82.19,0.12,123.29,0c3.33-0.01,4.28,0.72,4.26,4.17
				c-0.17,22.01-0.18,44.03,0,66.05c0.03,3.46-0.94,4.19-4.26,4.16C418.01,331.22,397.46,331.3,376.91,331.3z"/>
		</g>
	</g>
	<path class="st379" d="M412.17,299.95h-81.04c-6.6,0-12-5.4-12-12v-16.8c0-6.6,5.4-12,12-12h81.04c6.6,0,12,5.4,12,12v16.8
		C424.17,294.55,418.77,299.95,412.17,299.95z"/>
	<path class="st380" d="M410.43,298.22h-77.57c-6.6,0-12-5.4-12-12v-13.33c0-6.6,5.4-12,12-12h77.57c6.6,0,12,5.4,12,12v13.33
		C422.43,292.82,417.03,298.22,410.43,298.22z"/>
	<g>
		<g>
			<path d="M368.81,291.69v-3.36h-3.83v-0.9l3.81-7.77h0.63v7.79h1.07l-0.08,0.88h-0.99v3.36H368.81z M368.81,283.81
				c0-0.68,0.01-2.17,0.02-2.98c-0.33,0.88-2.22,4.7-3.14,6.62h3.11V283.81z"/>
			<path d="M371.56,291.69v-2.36h0.6v2.36H371.56z"/>
			<path d="M378.72,285.59c0,2.76-0.47,6.33-2.6,6.33c-2.06,0-2.58-3.27-2.58-6.23c0-2.94,0.56-6.23,2.62-6.23
				C378.24,279.45,378.72,282.74,378.72,285.59z M374.22,285.7c0,2.34,0.33,5.34,1.91,5.34c1.62,0,1.93-2.87,1.93-5.45
				c0-2.3-0.31-5.26-1.88-5.26C374.53,280.32,374.22,283.03,374.22,285.7z"/>
		</g>
	</g>
	<ellipse class="st63" cx="340.4" cy="309.5" rx="7.38" ry="6.08"/>
	<ellipse class="st63" cx="360.36" cy="309.5" rx="7.38" ry="6.08"/>
	<ellipse class="st63" cx="381.2" cy="309.5" rx="7.38" ry="6.08"/>
	<ellipse class="st381" cx="363.83" cy="326.25" rx="3.91" ry="3.22"/>
	<ellipse class="st381" cx="373.38" cy="326.25" rx="3.91" ry="3.22"/>
	<ellipse class="st381" cx="382.06" cy="326.25" rx="3.91" ry="3.22"/>
	<path d="M432.85,279.12L432.85,279.12c-1.43,0-2.6-1.17-2.6-2.6v-6.94c0-1.43,1.17-2.6,2.6-2.6l0,0c1.43,0,2.6,1.17,2.6,2.6v6.94
		C435.45,277.95,434.28,279.12,432.85,279.12z"/>
	<path d="M432.85,295.61L432.85,295.61c-1.43,0-2.6-1.17-2.6-2.6v-6.94c0-1.43,1.17-2.6,2.6-2.6l0,0c1.43,0,2.6,1.17,2.6,2.6v6.94
		C435.45,294.44,434.28,295.61,432.85,295.61z"/>
</g>
<g>
	<g>
		<g>
			<path class="st14" d="M308.08,471.87c0-29.24,0.15-58.48-0.15-87.72c-0.05-4.75,1.31-6.08,7.5-6.04
				c39.57,0.25,79.14,0.25,118.71,0c6.21-0.04,7.5,1.32,7.48,6.05c-0.22,58.48-0.22,116.96,0,175.44c0.02,4.73-1.29,6.09-7.49,6.06
				c-39.57-0.25-79.14-0.25-118.71,0c-6.22,0.04-7.53-1.34-7.48-6.06C308.22,530.35,308.08,501.11,308.08,471.87z"/>
			<path class="st378" d="M315.87,471.39c0-26.11,0.13-52.23-0.13-78.34c-0.04-4.24,1.17-5.43,6.72-5.4
				c35.46,0.22,70.92,0.22,106.37,0c5.56-0.04,6.72,1.18,6.7,5.4c-0.19,52.22-0.19,104.45,0,156.68c0.02,4.23-1.15,5.44-6.71,5.41
				c-35.46-0.22-70.92-0.22-106.37,0c-5.57,0.04-6.75-1.2-6.71-5.42C316,523.61,315.87,497.5,315.87,471.39z"/>
		</g>
	</g>
	<path class="st382" d="M396.63,447.55h-39.37c-6.6,0-12-5.4-12-12v-16.8c0-6.6,5.4-12,12-12h39.37c6.6,0,12,5.4,12,12v16.8
		C408.63,442.15,403.23,447.55,396.63,447.55z"/>
	<path class="st383" d="M391.26,431.92h-28.65c-5.73,0-10.42-4.69-10.42-10.42l0,0c0-5.73,4.69-10.42,10.42-10.42h28.65
		c5.73,0,10.42,4.69,10.42,10.42l0,0C401.68,427.24,396.99,431.92,391.26,431.92z"/>
	<path class="st14" d="M386.92,545.64h-20.83c-3.82,0-6.94,3.13-6.94,6.94l0,0c0,3.82,3.13,6.94,6.94,6.94h20.83
		c3.82,0,6.94-3.13,6.94-6.94l0,0C393.87,548.77,390.74,545.64,386.92,545.64z"/>
	<circle class="st14" cx="366.52" cy="437.57" r="3.07"/>
	<circle class="st14" cx="374.05" cy="437.57" r="3.07"/>
	<circle class="st14" cx="381.57" cy="437.57" r="3.07"/>
	<circle class="st14" cx="389.09" cy="437.57" r="3.07"/>
	<ellipse class="st14" cx="377.36" cy="444.06" rx="18.25" ry="0.88"/>
</g>
</svg>
