<svg width="120" height="160" viewBox="0 0 120 160" fill="none" xmlns="http://www.w3.org/2000/svg">
<path d="M73.6 47.1813C73.6 48.9773 74.856 50.4383 76.4 50.4383H85.4666C87.0106 50.4383 88.2666 48.9773 88.2666 47.1813V36.6349C88.2666 34.8389 87.0106 33.3779 85.4666 33.3779H76.4C74.856 33.3779 73.6 34.8389 73.6 36.6349V47.1813ZM77.6 38.0307H84.2666V45.7854H77.6V38.0307Z" fill="white"/>
<path d="M51.1168 22.0329H15.2832C14.1787 22.0329 13.2832 23.0745 13.2832 24.3593C13.2832 25.6441 14.1787 26.6857 15.2832 26.6857H51.1168C52.2213 26.6857 53.1168 25.6441 53.1168 24.3593C53.1168 23.0745 52.2213 22.0329 51.1168 22.0329Z" fill="white"/>
<path d="M51.1168 34.9688H15.2832C14.1787 34.9688 13.2832 36.0105 13.2832 37.2953C13.2832 38.5801 14.1787 39.6217 15.2832 39.6217H51.1168C52.2213 39.6217 53.1168 38.5801 53.1168 37.2953C53.1168 36.0105 52.2213 34.9688 51.1168 34.9688Z" fill="white"/>
<path d="M51.1168 47.9045H15.2832C14.1787 47.9045 13.2832 48.9461 13.2832 50.2309C13.2832 51.5157 14.1787 52.5574 15.2832 52.5574H51.1168C52.2213 52.5574 53.1168 51.5157 53.1168 50.2309C53.1168 48.9461 52.2213 47.9045 51.1168 47.9045Z" fill="white"/>
<path d="M31.3464 78.4291C32.4509 78.4291 33.3464 77.3874 33.3464 76.1026C33.3464 74.8178 32.4509 73.7762 31.3464 73.7762H15.2832C14.1787 73.7762 13.2832 74.8178 13.2832 76.1026C13.2832 77.3874 14.1787 78.4291 15.2832 78.4291H31.3464Z" fill="white"/>
<path d="M96.1333 38.0307H107.867C109.411 38.0307 110.667 36.5698 110.667 34.7738V21.1255C110.667 19.3295 109.411 17.8685 107.867 17.8685H96.1333C94.5893 17.8685 93.3333 19.3295 93.3333 21.1255V34.7738C93.3333 36.5698 94.5893 38.0307 96.1333 38.0307ZM97.3333 22.5213H106.667V33.3779H97.3333V22.5213Z" fill="white"/>
<path d="M65.4986 68.0511H51.1893C50.0848 68.0511 49.1893 69.0927 49.1893 70.3775C49.1893 71.6623 50.0848 72.704 51.1893 72.704H65.4986C66.6032 72.704 67.4986 71.6623 67.4986 70.3775C67.4986 69.0927 66.6032 68.0511 65.4986 68.0511Z" fill="white"/>
<path d="M108.09 72.704C109.194 72.704 110.09 71.6624 110.09 70.3775C110.09 69.0927 109.194 68.0511 108.09 68.0511C106.985 68.0511 106.09 69.0927 106.09 70.3775C106.09 71.6624 106.985 72.704 108.09 72.704Z" fill="white"/>
<path d="M102.49 72.704C103.594 72.704 104.49 71.6624 104.49 70.3775C104.49 69.0927 103.594 68.0511 102.49 68.0511C101.385 68.0511 100.49 69.0927 100.49 70.3775C100.49 71.6624 101.385 72.704 102.49 72.704Z" fill="white"/>
<path d="M96.8899 72.704C97.9944 72.704 98.8899 71.6624 98.8899 70.3775C98.8899 69.0927 97.9944 68.0511 96.8899 68.0511C95.7853 68.0511 94.8899 69.0927 94.8899 70.3775C94.8899 71.6624 95.7853 72.704 96.8899 72.704Z" fill="white"/>
<path d="M51.1891 92.8415C50.0846 92.8415 49.1891 93.8831 49.1891 95.1679C49.1891 96.4527 50.0846 97.4943 51.1891 97.4943H65.4984C66.603 97.4943 67.4984 96.4527 67.4984 95.1679C67.4984 93.8831 66.603 92.8415 65.4984 92.8415H51.1891Z" fill="white"/>
<path d="M108.09 97.4943C109.194 97.4943 110.09 96.4527 110.09 95.1679C110.09 93.8831 109.194 92.8415 108.09 92.8415C106.985 92.8415 106.09 93.8831 106.09 95.1679C106.09 96.4527 106.985 97.4943 108.09 97.4943Z" fill="white"/>
<path d="M102.49 97.4943C103.594 97.4943 104.49 96.4527 104.49 95.1679C104.49 93.8831 103.594 92.8415 102.49 92.8415C101.385 92.8415 100.49 93.8831 100.49 95.1679C100.49 96.4527 101.385 97.4943 102.49 97.4943Z" fill="white"/>
<path d="M96.8899 97.4943C97.9944 97.4943 98.8899 96.4527 98.8899 95.1679C98.8899 93.8831 97.9944 92.8415 96.8899 92.8415C95.7853 92.8415 94.8899 93.8831 94.8899 95.1679C94.8899 96.4527 95.7853 97.4943 96.8899 97.4943Z" fill="white"/>
<path d="M51.1891 122.285H65.4984C66.603 122.285 67.4984 121.243 67.4984 119.958C67.4984 118.673 66.603 117.632 65.4984 117.632H51.1891C50.0846 117.632 49.1891 118.673 49.1891 119.958C49.1891 121.243 50.0846 122.285 51.1891 122.285Z" fill="white"/>
<path d="M108.09 122.285C109.194 122.285 110.09 121.243 110.09 119.958C110.09 118.673 109.194 117.632 108.09 117.632C106.985 117.632 106.09 118.673 106.09 119.958C106.09 121.243 106.985 122.285 108.09 122.285Z" fill="white"/>
<path d="M102.49 122.285C103.594 122.285 104.49 121.243 104.49 119.958C104.49 118.673 103.594 117.632 102.49 117.632C101.385 117.632 100.49 118.673 100.49 119.958C100.49 121.243 101.385 122.285 102.49 122.285Z" fill="white"/>
<path d="M96.8899 122.285C97.9944 122.285 98.8899 121.243 98.8899 119.958C98.8899 118.673 97.9944 117.632 96.8899 117.632C95.7853 117.632 94.8899 118.673 94.8899 119.958C94.8899 121.243 95.7853 122.285 96.8899 122.285Z" fill="white"/>
<path d="M120 59.5336C120 57.3955 118.505 55.6562 116.667 55.6562H66.4V47.8016C66.4 46.5168 65.5045 45.4752 64.4 45.4752C63.2955 45.4752 62.4 46.5168 62.4 47.8016V55.6562H43.1016C41.2635 55.6562 39.7683 57.3955 39.7683 59.5336V60.8404H15.2832C14.1787 60.8404 13.2832 61.882 13.2832 63.1669C13.2832 64.4517 14.1787 65.4933 15.2832 65.4933H39.7683V81.222C39.7683 81.7735 39.8693 82.2975 40.0485 82.773C39.8693 83.2485 39.7683 83.7724 39.7683 84.3239V91.5631H4V18.6755L15.4939 5.30573H62.4V10.4239H59.3333C57.7893 10.4239 56.5333 11.8848 56.5333 13.6808V27.3292C56.5333 29.1252 57.7893 30.5861 59.3333 30.5861H62.4V36.945C62.4 38.2298 63.2955 39.2714 64.4 39.2714C65.5045 39.2714 66.4 38.2298 66.4 36.945V30.5861H71.0667C72.6107 30.5861 73.8667 29.1252 73.8667 27.3292V13.6808C73.8667 11.8848 72.6107 10.4239 71.0667 10.4239H66.4V4.5529C66.4 2.40236 64.896 0.652893 63.0472 0.652893H15.2259C14.3299 0.652893 13.4877 1.05862 12.8549 1.79532L0.982133 15.6059C0.3488 16.3426 0 17.3218 0 18.3634V92.3156C0 94.4662 1.504 96.2156 3.3528 96.2156H39.7683V106.012C39.7683 106.564 39.8693 107.087 40.0485 107.563C39.8693 108.038 39.7683 108.562 39.7683 109.114V130.802C39.7683 131.354 39.8693 131.878 40.0485 132.353C39.8693 132.829 39.7683 133.353 39.7683 133.904V155.593C39.7683 157.731 41.2635 159.47 43.1016 159.47H116.667C118.505 159.47 120 157.731 120 155.593V133.904C120 133.353 119.899 132.829 119.72 132.353C119.899 131.878 120 131.354 120 130.802V109.114C120 108.562 119.899 108.038 119.72 107.563C119.899 107.087 120 106.564 120 106.012V100.844C120 99.5592 119.105 98.5176 118 98.5176C116.895 98.5176 116 99.5592 116 100.844V105.237H43.7683V85.0994H116V89.9874C116 91.2722 116.895 92.3138 118 92.3138C119.105 92.3138 120 91.2722 120 89.9874V84.3236C120 83.7721 119.899 83.2482 119.72 82.7727C119.899 82.2971 120 81.7732 120 81.2217V59.5336ZM69.8667 25.9333H60.5333V15.0767H69.8667V25.9333ZM116 109.889V130.027H101.333C100.229 130.027 99.3333 131.068 99.3333 132.353C99.3333 133.638 100.229 134.679 101.333 134.679H116V154.817H43.7683V134.679H92C93.1045 134.679 94 133.638 94 132.353C94 131.068 93.1045 130.027 92 130.027H43.7683V109.889H116ZM43.7683 80.4462V60.3091H116V80.4462H43.7683Z" fill="white"/>
<path d="M65.4986 142.422H51.1893C50.0848 142.422 49.1893 143.463 49.1893 144.748C49.1893 146.033 50.0848 147.075 51.1893 147.075H65.4986C66.6032 147.075 67.4986 146.033 67.4986 144.748C67.4986 143.463 66.6032 142.422 65.4986 142.422Z" fill="white"/>
<path d="M108.09 147.075C109.194 147.075 110.09 146.033 110.09 144.748C110.09 143.463 109.194 142.422 108.09 142.422C106.985 142.422 106.09 143.463 106.09 144.748C106.09 146.033 106.985 147.075 108.09 147.075Z" fill="white"/>
<path d="M102.49 147.075C103.594 147.075 104.49 146.033 104.49 144.748C104.49 143.463 103.594 142.422 102.49 142.422C101.385 142.422 100.49 143.463 100.49 144.748C100.49 146.033 101.385 147.075 102.49 147.075Z" fill="white"/>
<path d="M96.8899 147.075C97.9944 147.075 98.8899 146.033 98.8899 144.748C98.8899 143.463 97.9944 142.422 96.8899 142.422C95.7853 142.422 94.8899 143.463 94.8899 144.748C94.8899 146.033 95.7853 147.075 96.8899 147.075Z" fill="white"/>
<path d="M32.8 100.999H21.0667C19.5227 100.999 18.2667 102.46 18.2667 104.256V117.904C18.2667 119.7 19.5227 121.161 21.0667 121.161H32.8C34.344 121.161 35.6 119.7 35.6 117.904V104.256C35.6 102.46 34.344 100.999 32.8 100.999ZM31.6 116.508H22.2667V105.652H31.6V116.508Z" fill="white"/>
</svg>
